<mxfile host="app.diagrams.net" agent="Mozilla/5.0 (Windows NT 10.0; Win64; x64) AppleWebKit/537.36 (KHTML, like Gecko) Chrome/136.0.0.0 Safari/537.36" version="26.2.5">
  <diagram name="PÃ¡gina-1" id="rX4xXW2Sx22mwDUotwUF">
    <mxGraphModel dx="1740" dy="945" grid="1" gridSize="10" guides="1" tooltips="1" connect="1" arrows="1" fold="1" page="1" pageScale="1" pageWidth="827" pageHeight="1169" math="0" shadow="0">
      <root>
        <mxCell id="0" />
        <mxCell id="1" parent="0" />
        <mxCell id="1_tyyqI9DhQq_7YyejGf-2" value="" style="shape=image;verticalLabelPosition=bottom;labelBackgroundColor=default;verticalAlign=top;aspect=fixed;imageAspect=0;image=data:image/webp,UklGRjzEAABXRUJQVlA4WAoAAAA4AAAAXwkARQUASUNDUKgBAAAAAAGobGNtcwIQAABtbnRyUkdCIFhZWiAH3AABABkAAwApADlhY3NwQVBQTAAAAAAAAAAAAAAAAAAAAAAAAAAAAAAAAAAA9tYAAQAAAADTLWxjbXMAAAAAAAAAAAAAAAAAAAAAAAAAAAAAAAAAAAAAAAAAAAAAAAAAAAAAAAAAAAAAAAlkZXNjAAAA8AAAAF9jcHJ0AAABTAAAAAx3dHB0AAABWAAAABRyWFlaAAABbAAAABRnWFlaAAABgAAAABRiWFlaAAABlAAAABRyVFJDAAABDAAAAEBnVFJDAAABDAAAAEBiVFJDAAABDAAAAEBkZXNjAAAAAAAAAAVjMmNpAAAAAAAAAAAAAAAAY3VydgAAAAAAAAAaAAAAywHJA2MFkghrC/YQPxVRGzQh8SmQMhg7kkYFUXdd7WtwegWJsZp8rGm/fdPD6TD//3RleHQAAAAAQ0MwAFhZWiAAAAAAAAD21gABAAAAANMtWFlaIAAAAAAAAG+iAAA49QAAA5BYWVogAAAAAAAAYpkAALeFAAAY2lhZWiAAAAAAAAAkoAAAD4QAALbPQUxQSIs5AAABJLVt2zD2/2+n1zUi1LZtw8AlfcoXXAQI5PU/Ct53+dWaNZlzE+AP/z/VVvr/m9knOHS3dEq3NNIYhN0tinTYQYOA3dLdYYNKN4JBdzccujlnzTyva83MPnvP8/X34xURkiBJjtvIDux2tFWCnnuAg8EMXo5qa7uO/w9wvxlJoIAQNNBEAxHMhZFACFPTf+RrYHl2RDByG0mRh+kHsHCs4lXgP/7jP/7jP/7jP/7jP/7jP/7jP/7jP/7jP/7jP/7jP/7jP/7jP/7jP/7jP/7jP/7jP/7jP/7jP/7jP/7jP/7jP/7jP/7jP/7jP/7jP/7jP/7jP/7jP/7jP/7jP/7jP/7jP/7jP/7jP/7jP/7jP/7jP/7jP/77OyXB1VdECAmshAxVck5gZYYq52vLt35bVEhUpVKe/ZeI6KdESEVJIe5fSaSCdLpRV0QQ1ST1F6hQaVJ0PfzCU6ri6OukQ0UqnX5LwlOTFBhwhijQOjSIfisuJJpaTt95V6gUaVIBXXk7k5Bgajl9x9WWst2l9YSQWGqSevM0KaXJcHThrUwiIqEUVeqLq2Y5veP+XlOICJaKEv/mcSKjLPdsnyQopaSIPP6vPYnt/lQldKHUJM0WRVFK07HOEkxRFcbdMpO47syyoQul4pgOOksUTe1/Ckyp5Jd22soewZg7hJBIapLWy8wkUdyt7cGUW2VqQEqRUaQCujkyj5ASSKmCQ85Hp2jN3aGLpDaQfmVvNGW24Xk7i4hIIDVJu5XWJNp1F9YKXSClqk9PJ2W71stPdkvEUW6oigy/YFFR3OnlQhdITfLqfisvUktRqPY+haWo+9dE2eJQm2AQ6V8XhlJuzVnKZO6no1Cb2kIpVWTEBbOBtOsqujIkp5ASRqnM3a1JKJq7pF7o4qhJ2q8lCpQ7lKZTvZJFRMIoVXO2siNtkbOenmaXD10cNclHl+xYENbvhtr3NJJSKa85k0Rx078rGg4YRd3nRtqypjTuP+2QlFt9phVpi2yKlKKrQ3MJKWHUJCMvupTrLm0YuohqEicYxBkrGASMyi1rtTVJdHdeZSDlVp9pJfWuo6p9TwMpVfjD8xlRAaV/WzQccCqpd4ribrpHiAQ0ldR7FFfRlUE5hJQgSlWblk4quptOtLgejqIKDb+QIaXpVPckEZEYSiV33mMn9R79PWdVCF0QRd2zwtriMAO161ERukiqjA3WK6Ksp7/9ZSEhQJQqOPicO0k0d0MbEEVJkWRPEpUK3YvvZhNSYqhJWln1w8rQXVQ7dDEUVXmyE2mLoihNx141tWyAUCrfwNTolONOLgOh3IgUic/ucJfTW9pWOx4SoQuhJmmx2I20ZSmnwJCf5BdCYqiKuY+9RUpFcd0CQ7bAUJQQuT84EwOlKPXNzAgqGISUIuGpzfZy+ozcH6uGLoSapPFCoiAG6vBLUkQkgqLKjr5JOiBDuUMFFIwrEboQqkeEb51wJ4nubu4YKgQ1iXzM6hFhdEVK0bXhuYWEUG6Dn6NH2srgONAQSpX88hrpDCjrfyhP9zFNEAdQKvvrx9xJMnBnV8BPrhWq9MFNVlLvlCG150kEpSJC3PVDlEmcQSYYxO2vCoUDQFHFPrtqJrFVBpknYyiVpfshd5Jow2Se3N8cBxpAUR3XWyoG97daGMqtNdsuLWR0RaE69kqCiEj8pIp+dJl0DFRAemLp0EVQpYU8ECu1tVOoENRB61c5FS6ijNzro/JBKLfatCilhczIXd4YQqmCQ89nHAvCuJpS+6XAp2AQESkyOQetj4GiuZVCFz9N0mZZRpvwQKnaI0eEqDwljVRsbppVe2T8dND6QedcKkN3Y1v8REmR+Nz2WJQ2014eaDY5hE+TNHcPWk8ZuOlEv9VGUFS5sbejlBYyw00Ou5oyF6EnlevNEy6VcTCIqWXQkyulkE9stlUs6+m3PRQq/HTer1+IAhXbevqbn+QTAj5RJb+6TtqmMnZXNw1d9KSy9j7qTpKRq+nsm1mElPAp7eQN9iY8Mbk/VAFQbu15mlSs6sCzAEoVGXWZdGxUQMHoYuEATypz1wPuJDG4f5tGp0KotJO1RcWyyaG5fRboqc9ek03ayTG56UR/1MNPVIEh52OmNB3vYjY5BE/tnnhxV0yU855TyoQueJqk5dIYsp8hctSWB0KFnto9ES37mRjW098YaTY5BE/Zz7x72kwSq7uiCXYKBiGliDy51Z4ktvX0p/tlEhI8uQ1/dbKfIYplPf3sO4WIYCdV6psbpGOndpvyjUrsVHXkfkdjnEQjqPKNyogQndzsZygmd11rIRKwE1VnAVnZz8RCKUXn380qJHaiin58yUwSs/tzjZACT1VHPkgUhzr4QkREJHSa5L41topxPX0wtjh6cqtMN9nPxO7+d3+oUFTx+2JaT395CHRK3i8iRdILu10Vm/vHXaELoG77TqxK07HXkkREIieq4oQ0K/uZjCnHnVY2dJGTyvvemVgpBHUxZaQUkae22SrjYa+nv2HaEiCR0yRNfiMKVBzuymbgiSr73U1SxiWKwQ00nembKaSQU/Yzbxw3VBzr6edWDl3kRD240a7BTMzU3mcFdnLrzHdVDJTVloCvC4culKrBDJDqgXhEihRTg5nYlVJ04T2TvB9wmqTtSlvF7v5SEztRd05ysp+hWNXhzqYH4sBpE54BZ+OgrB6IjysRusBpE56nt9kqdvff9qFCTpvwLHSzn4l1Pf3VYSZ5P/B0FGgVl/vnXaGLm1S2vkfjozSd6JksIhI3UQ9sjBYLItbk/cpBJ7fWXCIVH7XrUeikCn90iXSMFNnBIG58kh82DSlE8iv7Yp/EcVc1CxVwOpHOcisWBGmKzQ00nX3dtNsLN51IZ1K6W4OZmN9zduXQhU0qz/unLSoetecJISISP9XFlmJeT3/r80LIyW1kTqQTJ7W2BXJSJb68RjoeN1B07i2TvB9s2oSnz1GXit2dXzV0YVMsiA4brPN+xUXttw6lg5pUzdmaVKyRtsit7Hbh0EVNVKEPL8ZPrW8Nm5QUSS/tiUfZ6+kvvJtNSImeyrMWl/tjDdjkClFhnCnPWlwu0cEXpYhI0KRyu+VZi2c9ffDdHaGLna6qU5zUxntChZomqf8zURAzRfZ6+ksDcgiJmqgSX14nHViviMP9tSZociNCZOl5JE6KQnXIOmw9atqEZ31Gh1WNsWM5JXCTW22mIqXipf65HzepAtF6lRPrMB3LGZRbSMhESZH08u64JnHcRXVDFzRN0nxJlIs7EOsI1VHr2u9gJqr8uNuk4qQCUhNLhS5mUjnfPRXXJA61uSNsouSj/7ixIOJZT39leF7Y5N71s539TJzu4vqwSRX77CrpuChNpohY3TFTEbEiUmTtecidJJ719HpymdDFTLEg7l1jVNzUtodgE1VpSjopFaer6PrIfOHATCVz75/qUnG5SxtBJiWliDyxzVVxrac/3dusp4dMkzR0qgQS53p6mlYeNVHFv7hGWmkdL7XjUdSkMnc7FD9lOkz/aYFwYKZYEGstFbe7vClqcitbsSDiX09/pl+KkBIzxYI451LxraefdSdicqUU8sltfqhdT4QKM8WC+JUoUPG50YpjC5liQUQ7rGp87pq7QZPK3P1wvJRxNZ190zR9AjPl5+AmRhrnevp5lUGTW2VKYGJBxE/tfRo0qTx2fg7xu7e+KhoOxJSfw1PbzSQ+1tO3BE1ug2ixIOKLE5/6lllPD5oKiKWMS/Gup59TJXQxUwGxPFG7nwoVYooFcY8TCyJu9+ZnhcKBmGJBTI1SQKw43ZXNMJPKOyBafg5x5j/T1+Q/g5iu+852ozxQNKMiZnIb/kIUeKF2PIqZVLEvrpP24Cq68UmBcACm/Bx6HnapeN3lTUKFmPJzWG2UJk3xrqc/1SuTkBIwxYKYbsWC8LGefmr50IVMsSB8UdsfDhV4unUW8Z1X9ZpVhxnAdOssFtqxIDy4SxpBJlX8Ky+xIChUJ3okiYiESyprzyPRqbjq5m7VFxIwxYJYZ5QXakunUAGmOjZMDUgpL+vpr1p1c8dLsSAGnnOpuN0/6oUKMZ2Zwouy+sH0GlzqB5P0FQvCWU8/vlTo4qUzU3xx3aotpA/q3/aISWXpfsQLZfU5dUhuISNwibrPRywIx/2tTuiCpjNT+FlPf9i6vwNoSeUbeI50vBQZKqD00SVCFy+dmWJH/BQ51KZ7Q4WZ+j0RnYrrXsrkFDICl85M8XmU2kLG7/5cCy65QqS8dtCKBeFFHXoxIiISLVFtV7l1bIhzqIDSvi0mBFyiyk2w+j3hh9rQDjCp7K+fdKn419Offz+7kHCJevBvS/lxF1QDTG6NWXYsCC9q//NCRCRauqtOwy6SNi7FSVnr6b8qErpoKUz8szs9UmtboSUVvcRFFJ+y/uR3/p2sQqIlqtgXN9ww8R7cOZXxEpXJCRPvR+15yqynB0tUm5WeKKulJl8UCl2wRJUfb4WJ90StaoGXVI43T3qjNJ193bTUBDmFiY+/pSZ34iW3+mydQZh4Dy0Ql2ApTPzwi6T9UErRzY8LhC5qChNPPtwVTUOFmW5TEflQmk72ThESLFHFnJs74IMKSE8pB5ZcKTJ1PeiT2vwAXqJaW1m9+1GKLg3OFQ6wFCZ+gp8w8Y77ax24pLK/dcondfBFU8oGTBUmXttH/oJLbo25ZhJv7rrWoUJMWb17UprOvIGVtpCWUiT4ChPvuLOqhC5kChPvi9r5WKgkWAoTHyWrdx9bSN8YlR8ruVKkdD3klVrSOFRgKav31W6YeC/U0deS0BJVfqIJE+9S8XclYFzp0IVKKucbJw3lzf2ngwhdrBQm/l+jvK2nv/BBDiElVsrqfY6nMPGO+1MttEQVHH6BtEdq77MypEBTmHgv6+lvfV44dKHSJA0Wulm9+3FXNg8VVuotvdXHONK+qFP9oNKpKaQQKd2PeKVoWoXQhUxh4n1RWx4IlURKVIUJadGzevfQYPo8QkAlleOt04by5KYTLaqPlqgH/3GU9kMdfiUBLFE1rTDx/tbTp48pHrpISeUfeom0Tflx17UJFVZqcepOfxQpTefezSokVKLqR6mZuwdXhe78aqGLlFSRT65ZWb17o3ZaBfADSlTiS/vcWBB+Qm3d+LRg6CKlWBDNlriUJ3dp41BBpRsp8/UtJ0y8J3W8RyagtJ4+IkVKtyOG8reeXk8qG7pQqfvhqy3lz/23A1iiyo5LJ6U8rqe/NCi3EBIoqWzWgb+8qYDo55pgierwl2dq/wtSRJCSW3mapsBQ5Gk9/e1v7ghdoKRyv5/qUp7cNc3BEvXoZn9Km893xuplHFByay+ww8R7o2jGnaGLlJLLGnbZJJel/VHbH8ZKlHxmhy+KnFNTfJgfK7kNfrMoj+4f9bGSKvLxNStMvD91tEsiTgq1JaVI6rLfH0X2qSlKYiW32WKjfFJ/3YuVVIlvbpIyg+J3jTKnpsgmZAQoVXW711FD+Qy1Naty6CKlMoGs8k3tsHo+AZTKBDIx3QoT74lSiq4Mzxu6gKkJl/F/acdddFeoEFNyWUQEpwoFEqoqM7XPMPFWdlnFQxcoJZc1INW3u7ZNqJBScllb/CpNp/tlFhIoUbXmky+K3NrYVgxdsHSdivxSWx4SIiJxUsMnnt/llVKKLg/JDZXchgvJ25F0HPfnOlBJ3fHldVJ+qX0vRJASlfTqQX97HNqJJ9/6umjoIqYKYnlzV7SASlSp0Tet/jx7pE72ShESJVFCZO55zN/Tik4NsSaXg0rUPWuI0v1Sf7cPlcRJyWVNSvdJkdJ0oX9OIXCSyvHWKZfytgvPjzWgEtXpb0dpb9TuJ6ESVXWWjtILJm9lcy8UujBJ5Rl0nrRNeXMXNwkVVkouy7M61jVZSJxE1bSTy/K5nj59fOnQhUkqn9UmQvLqbrwHJ1FSyCd3eKXIOmt9dqRE1fvZ3UHaX6itOVVgkhsRouCoK1ZxIX1SOx6HSaG2ZEQkPLfbH0WarPJCjiyAlNyGizweScdxf6+PlFSRT+3iQvqkDnVOhEmUFMmvROsgr7ez1n9bAim5TRcb5Zda2wopqWIej6RDZJSms29mERImUSldD/mktKFoeiWk5DZf7o8ih9r6oBARiZJU6bG3SSkif8qctT5P6KIkKnPPYx4px/21TqhwUt2RV3vc45BsdeDFCFCiyo6PciQdb2WYufVl0dCFSc2l73fcP7WyBVKi7t8QReGps9aHquJU5ZGys8tSk8qFLkpSOd8+7d/9p6MQEYmTTqvqW2k6/34OoORWmaEpUJ7X0y+oCZRUngHnSPumdjyJlKhHtniltJV48ogCQMmtPocM5fdMOovqAyWVb8gF0gH5pQ6+lACUqCe2+6duf10MKLl1opxW1aO7sjlQUgVG2FdSxu8uPL1R0i48UoqE53Z5pMjdhac8UHIbWN3KIb/upvuAkiry6VXSyud6+kBTqtmFByVRSS/v90/RrCpAyW38h1Geqe3W1bNASY2M+9zraVW1tTjsyoh8oYuSCtnw6iGX8uj+WhcoUc2WGaX9UvtfSsBJVKnvb7k1LvJ3Jp2bXxUNXZRUyIZuRxio5c1QkooI0XIFwx6Hx3umCImSqNJjrEI2aI9UQMGEMqGLkwrZwED9dS9Qotqu9q40nX0nu5ARkESVGZfmk3J34akEktyIFFl6H2egtlq78KCk9oevN8rrenpNl4fmEQIlUeUnpJNS/nfhwUkq2+unGKi9z0VwEnXvBr+UJrMLzxeFcZJbYXI6Bd6p5c1wksrx1hkG6mj3ZCFREnX/JgYqGF8KJ7mVp2tnB2mf7rq2QkQkSCp/33upVu5+fnfhOf1WNpxEdfzH5yQEl3bhEaLqLPe0qj6pLQ/iJCrX+6nWfzP6UsbVdMnqVw5Ioh7aTORROdRPtXASVW02B7XvOQmTqNwDzvukSBMpRdc/Kxq6MOk+FXmlHPfPhjiJqjGfGPY4PNwlSUiQROUdctGmyBelTfFGvy2Ok6jHt3nd49Bx17TCSVTt+eR9j0NNp/pkgUlU/uGmMrZeY0HYxRuFSZR8cmcUymcr49qHCiS59X7moFLfySFkBCOpgiOvkFZaew61NacKTqKe3uVQ5JPa9ihOour/6n2PQ+Ve7A+MpAp/dNU6rapn6uc6MImKPL+Pg9r7DE6iGi60lUc3pG58WggoUddI+XeXNgVJlBSJL7FQh17BSQk6NPrdSn/GM5X2fYnQBUv9NCGv7iqToIPESF247HzAXU/vU53okxkiUTJ0my62A5n6Pa6qnlwOJlHFv75JylJeqU3tjYJIVNIrBz0/rajNhzz3bg4hQBJ19zI3/Rm/lWyoDJSoWxzUtkdg0tOKyV0OeaXIKEVXhuaFSW7L5ZbyGsjUStABJqkS30bpwqXnum6jJCql+1HvlKlkw8eFYJLbaoVN+a5kQ2NwpGT47XTh8vvbHNSR15KgESUjzjtJkbnXMQ7q1jclsJErhZDZ8pTKIoRovZqFWtUKG6mIEAW6rNi888Rfc/uPTbcDmZJX6nivFCGRERX67xwl59v7HocqIDWxrHGR0ZCP/UakgiAwfuDf3WhVsgEbXeePL8h+StH+9l/JhuxCYCMlhl3J8ClFrxTNrISMKGsp/ItLQze68kttfggeUeU+NxSTq51KNkAjlTDoMmkGityWT9QOFTYKE//kSofSLNSuZ+ARVX2sZqOsBB0KhC40UnleP29TxEP9Xl+IBGBEJQjRfhdRwEcdfCVRSGxE1Z5ziwI+6tY3xaARJYUo+XaU6/zB4q5oHipsRLXbz6qO90xBR1TjpdcpUCzKrKdPH1caHVFl3j5OpLTmctffA48CmbY9QJTORWk6a+5GQwQbPa342w1KVzyxIFToTq+IjqgCfY9ZFDFR/1l3owEbXQKszazU+QG5oZEbEaLa/IACQzG5C6qjI1W4f5RLgOV/KKIdT2IjSgrx1H5XMXwrujUyPzpyGy2KUix371/mo157AR5RI6+RZnM1BXSmsEiARtSzTrHcuYbW1z5JxkVughB1o93ZAaah6ENsdJ0/zKEpFGm2EX4Hi0qgohdJIZKe3JrR04o8c9USCbAouawav7kU57j+UTZYRJWcctG6swOcrk4nmgCLqIJd+SkdEJ1/LreQmIiq/TdnLAgi6wMrujSlESpyyy+8QoHic7VDHXpKCCkRkSrWexeR4qfS++QTMgKJqDrbDcXsaro2tp0QEUj0tGLVhRdNLAjSxOimU7C3KyqiCvQ4EFKkWSkVUv2yQSIqIkSLf8leT0+MVEDps1tCIiqcpMLs21aYeGaKTndGRVSugSec06pqVurm4ApCQCIq8f4VxO8GdPOvp1ERVXK2rbhDbaV1NcvHEBGV4+OzVt7JrCr0g+GNhJCIiMryiNWYZ3YqfWMvs54eEVElfrFjQfBSmmiIFAISUfm+POHcoyI+RUoRjbgrERGpiEi5L0rR3FkpvagbKjqSTvGf3TDxvNStAQIRUREhcg86TJpb6ZD6sqrARJS8b7Wb/gyvu7krKqLKz/ofoILQHZUCiqgiQ0+Fg9gDmdKYDpkRESVFwkPbLUpzDW1T+sjnUgiJiNz6f9o7SLNTX+QSIgERqeIjr1inVWWnZjyXCxC9QobjqQPMexySTe0flwyK1tPX+ck6rSqvq0JqXFZQROXtf9kKZMqnrEG04Jm8iIiSIvHR7W7R3HkDmZ7/NgURUQlCVP2FPTNSTUoTTawIiqhSE90GPbOupyf6+zmJiaj8L277H8iMVAWU/nGWkIJEhWzYQhT8D6ynp7mNQ4WIqNo/nCWliJHSNrX3/UxCSkBEFXr+kN3IOG6KpucJXUQUJr75PrK7cEnM1LxWmUQEDrlGTTtjKK01M7V1YDYh8JCSIudz5+z0Z9ip8TkQ0Xp6KUTHndwU2e4PbRMMhYdeVnXsVdL/AxRdHJpiKEA0mpz5HwhkatbTf1ve2oUHEP209VFK0/yU/qu3CS0BiUbJ4/8TCTrQyER7PT0i8nqEg5/6pmWypSDR74V2mEjxjJRRO4bYDz+Cot8fYhzWJOH4Lqe1nh4U/Z4oXqZAa9603jtmMa+ARVrU+sv8wrkLzzAZUsBI5f/wMinWpxVHZEVGVESIp3YSKY65tONObSOxEVX3R7Yj12vS6ZpOvi2wEVVg5BUr3rvWLOvpKaQKISNKCvnsLmevQyYqfXEvISLIiKr3q0Oxraf/UIQDGKmCH5s0aDQPZX3WT5skQaOnFSPPWxSbS8GOkeBoPX3Dhe6R63kU0bBkbEQV/vgaKcW0nt4SX9yfEkVBomrMvLyPl1L7h6Ej6nc+pa3dewZlESIBGKmin10nxer+8miSkMCISnrlAC9Fx7uCI6qJXd5tYqI03fy4PDZ6WrHYlzd4Kb25k8BGTyu+cohxPb02bu9sQiIjquniKOnP8GTocHtas9AFRqr4N7esaszwrac/ZF3sD1xEJXf1Tmmyt5s2rwtVer8CQjouJrr5O0u9U1qTUkpbkwR0eUprbESV+O62Q3nfOloFgdJER54GRqG2IlKkdDvs/WlFHbKKbl24Yn2KC72LComM3FYrjOJwV7WuWn/a19P+7NRICAmMVOnRhtLkX53ok1lY35mEkMCIytzzGAsVUDCxjBCRSMS8bwQZUa1XcVEb7436lCIwUmXG8lCaUt/NISQ6GjKk+hwnCrwrFbqzKmMkt90aZxL/5Zd56LthLB/Vyk0KWAKZarowKA8+cqUQWfud9E457o81AZIy1Douas8zEiJR5SezUErR1VEFQxcfqexvsFF/NMBI1P1/cVEHX0qASFTFqQyUthJ0+LoYRqLeOs3lrmyOkagOm7jU8R6ZhARIVKXp2rrDA/6p9AllQhcfqVzvnSXN465vK0RE4iPqgb8ZKG3U2bdM48PxkVt5pv/r/WGogPTMShCJyv3BuXAQRyDT/zpiJOqhfzko80EvDswNkdxqc91CNvimaH4NjPS04oALpAOtGZ5W3PkERqIe/s87Rdr6V7arIwtAJLfGfKto7hzub3dBJJVnkEURgzrwYgJEoh7fykFppejm50UgkltrgXdKO+7yuyGSyjvkoneKbHWsWyYh8REln9jGkv6MCijt+5IYifrR/x6HDrW2LURSBT+8zPO0oqbTfTMLCY6GlEI+tdNQ/tN6D0hPqQiR3Lo/uXsceqf+Ma2ekPiIGmXf3QEG6tz7OYXAR1TkmSgNevZN0dyqEIm6ayEbtfUxiEQV+uiac3cHvHeB6cqwfPiIioiE53d7p8ihfr1LiAR8RDVY5Cjtndr7XAQhUYU/iXJ3B3wfV/XmZ0UQEpX00l426o/GRsEjt9EfbNTh1xKFdCh0dHcHeNy070tEoTDS3R3w7q5pDZGoJnaDnsmzolCd7JslCoWl7u6AJkOpieUgEvXqQf97HLrdYGqPkGJBiKZLouxxyNkNJmh0dwduund3wHs3mGZWRkhUpq6H2J5W3PJIqCQ2UhEhWqxkohRdGpxHCHxElfj+tkv57wZTLYREpfQ4wkbteS6CkKhWq3iUUnTto4IIiSplUZo4qD8a4iMlRZbeR9mogy8nRqGQ0d0dWMOhNIXUbasbTPBIlR5jKB53ZQuBjlwpRdY+x9moYz0zIaQEHdquZaGca5OCkKiyE9KsythyuOvvMRQ+ursDJ9ios2+bbjDho7s7EIXyfyad2ZURElV+UkCKifr3AYxEneSgrE96weoGEzyi7vuL7WlFWlADIVEVJis2aseThkJHKtubp5koc21SCiAkqn2Uuzvg3114V6gA0rX+UBQw7XG4/+VEgETlfPcMW+5+N78sGrr46Fp/MFIrmoUKH13rj2l81JHuKULCIyrXe6lsVNqYkgiJ6vQPH7WuLUKiqszUFCgedapfVoREfZDKtguPmlIRIVEP/stH/WtdmxSYdK0/NPnvBtMHOdGRGxEiz4DzpLkSdJhfFSFRj2zho7Y9hpCo6g7l39V02eoGEzy6uwMDGShyqN/qISTqsW181N7nJECiav5gKJ5KNtz4rHDooiOVf9glPurPRvCIkkI8sZ2POtwlSUiJkm78judBxr39fUmERA2/TDogz5M47qoWocJH1/pjh0sxdIOpTxaARNX9xVAMk6iAggllQxcdqQIjQkppzUJtvA8gBTKNPO3e+B1i6gYTPHLr/eY+reifolmVhYBHqtCoK6QUU6itLQ8LEZHw6Fp/7OGjLg7KA5Dc+gstxbOe/odaAEkVHnWZlHeXbLX7aYmOKCkSX9zLRClF10YVAEhuw0VEgWKifm8EkFTRz65ZlN/3cdSBlxIRErWfhdJkFbnoDqhEMbjLm4vQRUgUlzrWLZOQ8Ih6iY0KKH1saXBEyWg3fkezrKdf1w4gUcW+uG72OOShTr+eFR9RyZ0PMFBkU3paRYD0tGLTJZbicf/piJCoL2+wpD+jrW4wWUUuQkc3fqfLIT6K5lYDSFSzZQyUdqjtjyMk6isOioxSdHV4foBEvXaYg3LcX+oCJOru5YxPK+57IYKPqBLf3iKliDT5ppSi658UBkhUV05qSROAtMdhc0MpJnWka7KQ6Igq+Z2hzCQM1O1vS+AjKqX7EY70Zxx3dWuARLVcyTjJiT6Z8RFVavRtNzNShm4wTSoHjtyIoY4yuhs7mI8OjqhWqx2lvStNZ9/JLgQ6ospYlCYWimZWxkdUlt7HGanND4cUOnLbrLEpBlfTpcF50JErRNmxaRzpzzjUj7XxUSDTLH1OMFK7ngZIVGs+StG1jwqGLjhS5SekOztIc1CL6qMjSogsfU8aV/NQBzonCImOApm2XctBkU3d+voOgERNTCeliMld2gwfUVn7WRTxqGPdM+Ej6t4NXMo0inBsKXxEVZgUMFJrWuOjPQ6zMVLaLnJRBBxR9/3lpj/DQOkp5fERVXGysu7uAA+1ySpyETZS2d86S5qNSn0/Bz6i2m9koZxdeOZUAUjUlICR2vooPqJyvHOWLdSWokuD8wqBjqgOm1got8hFdfARVWWGpoAtkOmeZyQ+ot5NddOf4cjd7+NC+Ijq9HeUSThuVFFDgETN5KQOvJwoJDiicr57zgpkykPd+qYYPqIe+s+lONzlzfARVXUWMVLHemaCR1SuD1JJs62nT59QGh9RD27mpNa1w0dUtdmaaY9DCtWZN7LCIyp3//NsTysGpKZVBEqU5qD+6QCQqFmG4lGazvfPFQ5wRA24QDogjvRn7EYRAqRApqxPK+54TMCjBB2qzw2V4lGKLg3NC5Coc6Tt9Gd4cvfDVtTe5yPwiKoxx6Z40nq/9nFhgESxBTLVVu5++Ih6ZAsndbBzIj56WtGhuHL3Kx662EjlGRhSfO6qliJ0sRH1KCt1vGcKPErQoeZ8Q3El6BCMLwOPqHyDLnJSG9oBJGorZ/ozZ97MJgRG2uOQPL+CbErPqISPnlYcZKU/o5mofzvBKkqbD3thQG545Naab6c/w0PR3Gr46GnFIZc405/Z8QRKohhc61/aLg/Lj5IoBlcb99e6+IgayhrIdN8LEXhEPbGDiEkpRdc/LYyPqB94KMdd3AQeqbyDWanDXZLxEbWNk7r9bXF8RC3gSX8mSu5+8EjlH3bJpoiFOtYjRUh0RG1n2+NQBaTGlYZHbm2LIi53w71CRCQ2CmQ67DJj+jNWD3kFsKL01IrwiKrzo53+DBP1T0d8RA03lGagtFX/vvdzgiQKV+XuV+enKHsc8vWQFx8FMlWWy5HW++WheUIXGlHyqZ2s1I+14BFV90ej2KjXJR+tMk8r8qX1/rntolGvjAgRjWJxFx3z0SrraUXNRR14OaGqs9GqAiMcirxTWim6+XlRbERJIW2KLa33ZXeDpECmbJMc7ZYJI1HEMokKKO37kvDoacUnd7E+rbimDUh6WpFNneybWcgIONrjMKTsWBAsab1PLB+66Cj9GVZq0/3waBee2j8wpj+j6ezb2YXARiqvXaA1YqJoZiV8RO1gpf57EB5RtXip81ZpbMFRFWYukGbM3W9BDXhEPbaNldr+ODyiasxjSn/GuJquDM8Hj6hBDkU81C91Q4WROj7B2l56SNUMJuvT3viscOiCoxbyXnTTn2Fx/2wEj6iHN7NSB19NAkmU/1c4ab1/fUfoQiOVq791J2XYqOXN4RH14L82xVYaW3iU1nu1We4ehyxU+thSoQuNVM4PQorRXdsuVODoujr9x0qdej0LOkrrvYpNsaX1PrUCPKLeT+Wj0ok2dRAiIrHR04qclKbUd+FRWu9VZmoKFF9a73OqwqNAppxUqDY/BI+oTv9w7XGotdJ0cXAedORWnq5CirE0tjXRkcrxbmroEmNa7/CI6vC3TXFVzf3DfPCImmEo8woe6uc68Ih666xxNRe151mJjqj2mxgDmSq69kkhdOTeOc1QDJM47u/10ZHK/qZFERe1/6VEUEW5VXMvgo7cilNsistd0gwbKSmy9jvFSh3umiwkNqLu3cBK3fqmGDqiyk0MKFB87soW6IjK0vck74m/esKjE3+1XmMUT1rvGOnEX6XHpLFS69oKaBRqS4rMvY6zUif6ZEFHVIuVjFRAanJ5dESV+P42KcZApn/dg46o5K5HuCht1Bl81FCTu5e5JcRiofSMSuiIKvblLVbqnw7oiErqfJDraUXr0577IBc6cpss5qLISut9dhV0pIp+dj2kNBu15WFsREVE5IV9FsWjNF0Ykg8dufUXGcV2eQfoh5roSBUcddVQxEXtehIdUQnP72E98deV4fnRkVvvFybKcX+ri45UgeGXSQV81N7nIuCIEk/tYk3r/erHhdCRW+tHsqoLyUX90QgdqXxDL5FmpA68mCgkNqIeZet/uDbUjS/uCF2I1ORUrhJiLWsqREQiI5Xb6n84sVGHuiShI+rBzWwUmcNAf1cCHVFVuJqcGr0Nl8DIFSLHe7w9CTjaPRM6otpvtCmm9fRpY0qjI6r8VM1aXchVraCRkqaEWCd5DwPdOzM6otqt59vjECNRpcelkWKk1rZBR1RKj6Os1Mm+WYXERm7zlYyUomB8OSGwkSr+zU3WtN7XgaM6gUREUpfDrNTpflnQEdVoMW8JsSZVREdUoU+vsVIb74dHJ/56YS8rdebt7OjIrfOrm7sf073+uBMenfhr5BVSASPVHh1R4ontrNWFPPtODiEkNHJrzCcKFFv6M3pmFXRE5Rl0kXRAbNQ/HeER9dB/vNWFfD8nOnIrWbcBiy39GZpRGRopKUS2d85aLlf6M5sfhEfUPRt4KEtpOj8gNzqiyk4KnLTeeag51eFR7n69TjC6RFseMRQ0cluu5C088qA88KihJt/cYkvr3VDza0AjJSMi8eUDrNT2J+AR1fB3R2kW6tLgfPCoau4f27n7cVE/1EZHlHxmDyu17TF4RNX6kTH9GU0XB+eFRwk6DL5ImsN1qAW1jMJGCTpsxlZUpRlW1dxZ0no3FDp6WlGK7O+mMlFkUfNqGgWN3Pv+Ygm1pd1ApviIKj0+YKqaO2lDDckHjxJ06G0n6MCV/sx8fES1WIGtnlYs9s1tChRj+jN5jQuNKtnQ+ZBF8aU/A4+o+guJ0hUbtfVxeETlH3nNyd2PhxqQx7jYqIe8O1mpefiIqvlDqBSoOjSFFCJn/wukldYMLkh6WlE8wFTJBpz0tOKdMxxKM16oImzUDaY3zpBmWk9vqP746GnFe9Zz7nGoZ1eDR1TpsekclHao/8BRFWYSpEjpfoxnPb1Rms59AI+qMCOar3CUZqFmVAkVNlpO/8jYGyzHVXWoTZ2wERURos0q4llPb1Nn386BjqhSo9NJsVCaDDW9MjzKO7m71eRUswsPY8cnEFKTU7nUmTezYaQCrTGlP6MomFzRKGzU5FSTdzJnC3nhEdXoT97u0vcLKWykCn3C1eRUMlTahPLwqEBrz/MUaE077po28GgH6do/8TQ51VHHrTspA41U3mGXSbG4pEPq9uhS8Mh9dCsrtbIVPFKVZ7EeSedYzxRodPEspBA53jMFWiMu6uY3JeGRe/9GVmp5c3ikKkxSnNTBV5OxESVF5n4nuVxDXf+qBDxyW65iPa3qkibwaI/D4t+mcZ5WdX/nJCElNKKSXmUs0Jqia58XhUdUkz9ZqUUN4JEq9MkNUnzUvhcSQwocdTJut0WxqJD6tAg8cuv87CjNQv1WHx6pPIMvkeZK651oz7MRdESJR7fxradPpysjCsEjt8pM4gy1tacJOFJSZHv7LGnjEkswiPRxxUREAqoEHQgnpfVedkJgNTmViTrVNws2Wk8vRUpP1k7GpY8vi486GcdTyQYd5TDQ8Ejd8eVtUophPb2tTvTNio1y94uIhJcPsVLjyuCjTsYtYqXWtjMBJaCRKjDqGqmA7zDQvTKjI0o8sZMzd780gETVmEecZ9JZ0xYeUblMJ+MCtj0Oj/Ww6gQCjUbH/zip26NLwyOq4nTNRanQXdESG1FSiiz9zlguE3WkayZ4RLVay5SgA1nUdyXhEVVqdBrTmXS0cZfebRQ2Oq5qlyOc1KEuyfCIarKE88RfN74qho+Oq/rpdQ5KO+6fzYzCRsdVfXoPK9U5CR5RNX9ylPaulDkMND6qE0iugRet46oyUX80Ngoc3euPzZzU3ucT4BFVYRoxXd4BrTRd+6iwceFR8UY1j6tCd2FDo7CR23otJ7X7mQg8okp8n0aKZz19oOnyyELwaD19MlfxRsmifqyDj6gGf3Io7VA7nhQiAo6o/COv8jRA3FqDf3FYfnwUauvJnTwuaUPNq4mPqGoLrC6ncoxQbX0UHVFS5Ox/njSDa1Pn++fBR277v90tpDnupMzsavhIlZusGKn/HrAobFShtd6nQpdLva99PuptvsINtcVAbY9DPqrd8bWp0BrXHofPc7EqHP2htYNEgWaizrzd5KPeer+Gyr9rU8GUSvhI5R9xxTmTDktlbNvhI0o8tp2ROtkvKz5yq8wxFNMeh2njyoEjJU2/clLNjjpM1Jq2RoEjt90GRupY7yxCRsCRKjE63TmTDsNpVW99VwocuTIiErsctlweallz87QiPEo8mZE62CUZH1H5R17jCbVlqBtfFsNHlHhsB5OrTCEbmgAkqspcR2k8VcgG82eyrG+dI82ynl5puvJxYYBE3fMXEYMibaif6wGkQKYlx6RRoJionVYhG8CRm/TKYQ7XPa1qAYDkNnRDbWkGan4NgKTyjbhmnbWehdpinVYVH4Xa4qNS++cGSG6VOSyUJqWIZlZGR0q6t1KGidrU0VDwKLusv4i41Mk3s8OkUFuaOCg1uYJR6CjU1qtHeFxl3YwGhETV/8MNtcWTd7KARyrfh1dJ+afIUGljSgMkSjy+g4Miy13ewih05FaaHSr/rqUOd00RUsKjUFvvpJK2XJYepyIkt816/5R23MWNEZIqMdrKLouF2vtyMjyiIiLRZJfFQmm6MqowQnLrLuShVOj+VBcfKSlyD7ti/RmNJbmsx+BRmHgRvYm8/tX5gXnxkStEmcmaAsWyx6GeVc1W4KhThD1Phi55HdpxN3aASFSjxWzUqbeyhy48Uvk/vk5K+VdmB+nx5YyCR+PxHWzuyjYQSd05K1SKZwfpHpmtCmLBo0KBnCEdkNbaM2XtIA2R3BarvVM6SgWxIJIq+tVtLmrX84lCSnBEheO5fY7rfQfpyx8WhEhujQXk3XWoH+rgIyWlyP7+RdJWDbG8U5utHaTxkdtuIw9FdN4qEwg+UqXGpXun7ApiqalVABIVEQmdD/t2teNu6ICRqLq/cVEn3sgWuvhI5R7itjnV+w7SY8oYhY9G+/+4qJWtMRJVfqqiQHFQB1/LJCRACrWV3P2Ecf1SWitN1z8vhpGoRks41tOr0F3UGCNRBT6+wbGePiDa+WxESAmQ3Md2OuvpuRo+AZKqXOSXIm0d+Ks6QFJSiiyvn3VSI/UdC2LTA2YSgOQ2W8VCEZ18I0foAiRV8PNbznp6z2Hib48uaxRAGo/vdFzfWb0vbQGSqIrWkb8YqL0vJZkw8QApTnyf06QD8utaWb2PKASSqMZLfa+nd6gF9RASJYXI/5HnOPHazer9YfNPbgjJfXCb5/X0jjr7Xi6QRJWbYq2n9x4LIn1CRUfBo257dT9hud6pVW3dSfBRt714qIPdMgsJkFwpcg+96qyn96k0Xf2smKEQktths39Khe6vDVCSKj1BU6D8U1ufiFixIADSeVVfOeq4ftW5gXlQklvnFwZKkZpeBSIpKUWuAZed9fTelDbuuvtMLAiI5LbbxEId7ZU1dCGSKjEmsNfTe25x6jelIJKSESFfPOi4HIWxhUhu9R9ZqN0vJLmxIOBRC8TfveDUF9Krujg0P0xyW633TynSc2vBJHXHt37r5u5M8pd1WZ0w0nhmn+V6po6/nh0muZXnke16jQVxc3RpWyGkw9a/mep3PT1pq8RFTXESdfdqn5R2qG3PJAoJklSBz255p4hS++cxFEYaj+z07GqlKJh8J05SZSeTZ9dMsrItSJpERkRi1xOkA7Oe3ie1v0smnOTWXWRRftWlkUVBkpJS5BxokvfzqVRAam4tQ4Ekt/VGx/V6qT86ASVV5Eufmxw66li/7IYCSePxvaFL3lzSgTaJkQIlVWGmZ0oFRL81RUmUjIjkXqes/2f0OsnWp6SQMMmtv9hxfRYQy92EByOdqHCIFQwiHP6yn0mzN+FBSe69/xrXnzKTLG9lJkFJ6g73RIXaH7WvcyYhjMJIJyp87oBfN9B08cPCSImqtMBR/rKf0XNqGYWS3BTTbi+ProqyCQ9Mchuv8EwRHe6dDSe5QuQZadoSYIYXRdYmPCWNgklupy2O6y8WxC8NoBJVcry2lcdumjwuhZQwaT195OUj3lxHnf4gN1Siqv/sKO1rE55bY8s7CiQdB/rt8856en/lWWtuJsFJbsu13ihHbXs2UUiY5AqR72PnONDaV9WRz0TPfgYo9YrQ3yRpE+7ESqrURO2sp/cVaWux1Vp6nDTkC4cd11ekrR3PJwoJlJSo9rNHyp4kH1Ciaikyv5Hq9NTEU/YzaROtSYCS22iFR9dMssxKOxkoueOIa47ridr5fBJYck/lZ1N4U6mD8oEltb9v5b9s8Hber0pGIaXx7H4/rtY66nm/kJKqONsvtadzspA4yZURkdTrjFM4d0/deR5UAC1R9f70RpFSlD6lMlRSUoocg66QUj4U2ZO0NpNAJbfNRsv1Re1+OVkIrKQKWwWG9KYuDC9kKKg0HtsTuhQOD5QiNa0qXFLlpjmUn6TeV92DlSaREZH42gnSlusn0tarKUKCJbfWQsfVPjL3O/+hNQlUcrO8d9E+8xfF59pbHKZPrWoorOTe7Z75y0ukrWVtHIWU0ssadZMCpckPtbtzJkNhJbfjVl9uQJQ6MD9eUsXHai9Ka6UpbWIlrKSswA7PHHBcH5G2lli5ZYEl9865XhRpQ217OlEICZbcxB6nSCsPw6hT7+c1FFhy6/7uyTWFG/2+PFpSUoqsHzh95NXxLqcP3YVN0NIkIkGIluv8uEZtfiJBSLDkCpH3k9sUWK6Hu1T0Ri6LQk2RTOOf5Po3pRGTKj5BU6DiV0oR/VjfTAKXxnOH4na1Q218SAiJl1TFeZ4ooqP9smdAwaQmiJ92Dqwat7ryaTGj4JJbd7EPygrGNa+OmQQuudkHxX8zZTRZcUzXtTeT4CW35fp4Xe1QB7pnwUuUlCLfJ7fiDgZhq4sjixqFl9wHtoUuhW68kbbSp1XHTKrYOO2BsooE0g4vLae3doR+7iDZI16184Vkx0VNuZHGfR1lBuQ3Ci+5SSY30nDEqTTdGlcxGoWkSuCnNdmZ+zVFTEpKkc3KjTQOVzvUf09YjWACTG7z9ZYb9yRHX89pJgFMbt6Pbzq5kcanrn5V0ijE5LbfYr1nfEoRLbjLTIKYVLGxKr719M5y+rUdhZkEMY0n98Xlaofa3yMraqLKzfJAEV0YWcQoxDQiXU6QVhSPazaQDqZVR01KVP2JKD0ON4MNpCHTSOx7zjltfczvY6jtLyYZFzKN8gvjeU8d5SoV5QNNSiSIuw7auZHGtYH0zdHljAJNo/ZR+z3jWU5Pv1gbSKOmcec+a8S1nP6fxyJCGhczEcW3UHqsrjPJ4T45DAWbRp6Vlo5DXf6suFG4aWT+2RqxbyCtZtayJkFNX1KICVaGWTEupw/d1fdZG0gjpzGSVIyDjNr9SopFIaevN+2Y8LFeVKeBBRwFnF70rCYVjhjjmI6viJ6USBD3XY9pkDXJr1ZJt9HTqHOagoyGNt+h+vdxaS2nB08/Lb3Limcay8OKh/vlNBR8GnnXRNVa205AdHFUMVdhp4mS5rt7SWuK8jOiSxOrW5MAqO/P7Him2vmZmUYfX9i3KohSUvQi7ThBoMz7pi4b8UAxJ9gpfvqKiNY3SEX59zI6u+qLR8smW58onARC6SI7Kc1e50WpK0c8WjHB/pn1egz1+8f2w4qHF43oVCopo5+BqF8GX9y/blLPu4tJ62MkRASc+k4sXiBRxPjvZVAKh1Y/M5sawqvv//v/xX/8x3/8x3/8x3/8x3/8x3/8x3/8x3/893//v/iP//iP//iP//iP//iP//iP//iP//iP//iP//iP//iP//iP//iP//iP//iP//iP//iP//iP//iP//iP//iP//iP//iP//iP//iP//iP//iP//jvV0AAAFZQOCAYiAAA0PgEnQEqYAlGBT5RKJBGo6KhoSD12hhwCglnbvxq6a2fHg7+Afg7+kPtY6j1c8Afoj+ezm/wt/BP1B/M/4B+CH6I+YB/APxN+AD+Afgd+Ku3/7PlmuP1j+U/hBefWO7rP756kMC8xX6jf6H+6e9nYn79/ef0f/e/2X+XvpJ0/5mHnf7t/4P8r/f/fB/2PUD/B/6d+xf/e+QD+BfwT/LfyX/BfrZ8tP9T6sf6T/rvUD/XP9L+7f/u+NT0Z/9P1Gv9b/6usN/d32AP219OP9y//J8ln9P/137j/9/5Ev6R/ZP/v+5n//+QD/w+1//AP+N///YA/4P//9tfpn/IfwS/Tv/z+hP+i/I/8D/aH8a+n/z391/wv/b/xXul5c+0LNT+T84/YP+XfvnoBfgv8L/y/82/xHERXF8cvRDxY/zPUo/uv/N9bO+LoAfl39Yfdt73/57/ufYW/mP9L/6v9x4Un9s//gLxnjh0qGVsb6LpUMrY30XSoZWxvoulQytjfRdKhlbG+i6VDK2N9F0qGVsb6LpUMrY30XSoZWxvoulQytjfRdKhlbG+i6VDK2N9F0qGVsb6LpUMrY30XSoZWxvoulQytjfRdKhlbG+i6VDK2N9F0qGVsb6LpUMrY30XSoZWxvoulQytjfRdKhlbG+i6VDK2N9F0qGVsb6LpUMrY30XSoZWxvoulQytjfRdKhlbG+i6VDK2N9F0qGVsb6LpUMrY30XSoZWxvoulQytjfRdKhlbG+i6VDK2N9F0qGVsb6LpUMrY30XSoZWxvoulQytjfRdKhlbG+i6VDK2N9F0qGVsb6LpUMrY30XSoZWxvoulQytjfRdKhlbG+i6VDK2N9F0qGVsb6LpUMrY30XSoZWxvoulQytjfRdKhlbG+i6VDK2N9F0qGVsb6LpUMrY30XSoZWxvoulQytjfRdKhlbG+i6VDK2N9F0qGVsb6LpUMrY30XSoZWxvoulQytjfRdKhlbG+i6VDK2N9F0qGVsb6LpUMrY30XSoZWxvoulQytjfRdKhlbG+i6VDK2N9F0qGVsb6LpUMrY30XSoZWxvoulQytjfRdKhlbG+i6VDK2N9F0qGVsb6LpUMrY30XSoZWxvoulQytjfRdKhlbG+i6VDK2N9F0qGVsb6LpUMrY30XSoZWxvoulQytjfRdKhlbG+i6VDK2N9F0qGVsb6LpUMrY30XSoZWxvoulQytjfRdKhlbG+i6VDK2N9F0qGVsb6LpUMrY30XSoZWxvoulQytjfRdKhlbG+i6VDK2N9F0qGVsb6LpUMrY30XSoZWxvoulQytjfRdKhlbG+i6VDK2N9F0qGVsb6LpUMrY30XQ7CBL/adEn96fR75AjpUMrY30XSoZWxvoulQytjfRdKhlbG+i6VDK2N9F0qGVsb6LpUMrY30XSoZWxvoulQytjfRdKhlbG+i6VDK2N9F0qGVsb6Ij+wBOtzoGzV3r89BTO8wOtaXU/S+pystra2tra2tra2tra2tra2tz11Rnjh0qGVsb6LpUMrY30XSoZWxvoulQytjfRdKhlbG+i6VDK2N9F0qGVsb6LpUMrY30XSoZWxvoulQysfW3PEK/Jn1//XQQf1rq5rlSXyOKxYdIygrMjY5PkZLTlZbW1tbW1ueuqM8cOlQytjfRdKhlbG+i6VDK2N9F0qGVsb6LpUMrY30XSoZWxvoulQytjfRdKhlbG+i6VDK2N9F0qF3MgU5kb2c6Iyyf/+TcGPqjMnxzKhkZk8+XvLI1vK5GhM5kU/3XyVyI4LqlEGgK61mtKU9CkaEzmRT/dfJXIjguqUQaGISM8cOlQytjfRdKhlbG+i6VDK2N9F0qGVsb6LpUMrY30XSoZWxvoulQytjfRdKhlbG+i6VDK2N9F0qF0wgQVIBkM61//0bLBd7+hpGlfuVsb6LpUMrY30XSoZWxvoulQytjfRdKhlbG+i6VDK2N9F0qGVsb6LpUMrY30XSoZWxvoulQytjfRdKhlbG+i6VDK2N9ER+6+PXm7/NH35IQTr//8i2QyRVJedPE8voABwwWHSMoKzI2OT5GS05WW1tbW1ueuqM8cOlQytjfRdKhlbG+i6VDK2N9F0qGVsb6LpUMrY30XSoZWxvoulQytjfRdKhlbG+i6VDK2N9EZt00HX8o9//5JO/eRx9WLV9lZLTRvmW518MFh0jKCsyNjk+RktOVltbW1tbW1tbW566ozxw6VDK2N9F0qGVsb6LpUMrY30XSoZWxvoulQytjfRdKhlbG+i6VDK2N9F0qGVsb6LpUMrY3gKI/qAW5/NmODv/8R+G6027n83OKOphHdUZ44dKhlbG+i6VDK2N9F0qGVsb6LpUMrY30XSoZWxvoulQytjfRdKhlbG+i6VDK2N9F0qGVsb6LpUMrY30XSoZWxvotxOZul3Laz/62///Mv3HjCO/Xeb9gzQWxNRG3AUtra2tra2tra2tra2tra2tra2tra2tra2tra2tz11Rnjh0qGVsb6LpUMrY30XSoZWxvoulQytjfRdKhlbG+i6VDK2N9F0qGVsb6LpUMrY30XSoZWMvlCi8s2mfJ/xr46AmgLDuVpCrYfujCkXlEcnyMlpystra2tra2tra2tra2tra2tra2tra2trc9dUZ44dKhlbG+i6VDK2N9F0qGVsb6LpUMrY30XSoZWxvoulQytjfRdKhlbG+i6VDK2N9F0qF3MgU530PhXtk6j///ibSkNrw1L/9LJ93WCD3CAwT5H0XSoZWxvoulQytjfRdKhlbG+i6VDK2N9F0qGVsb6LpUMrY30XSoZWxvoulQytjfRdKhlbG+i6VDK2N9F0qGVsb6LpT+glCcyOPKwKZfI1BPWr+dzPpXJ6S0/2FdKVnYdIygrMjY5PkZLTlZbW1tbW1tbW1tbW1tbW1tbW1tbW1ueuqM8cOlQytjfRdKhlbG+i6VDK2N9F0qGVsb6LpUMrY30XSoZWxvoulQytjfRdKhlbG+i6HTlkF55QOnB6MPrDwne5M+xl0Od/t3JuxN8RXAVZAs/mBDK2N9F0qGVsb6LpUMrY30XSoZWxvoulQytjfRdKhlbG+i6VDK2N9F0qGVsb6LpUMrY30XSoZWxvoulQytjfRdKhdzIEWHlJfobwFK////GNAvr/XXbpn4YVprpzBRdV7PL6AAcMFh0jKCsyNjk+RktOVltbW1tbW1tbW1tbW1tbW1ueuqM8cOlQytjfRdKhlbG+i6VDK2N9F0qGVsb6LpUMrY30XSoZWxvoulQytjfRdKhlbG8BRH9QD5OxPxNlXZ/+7E7zhlMett4ufvyXHU/OsXDBYdIygrMjY5PkZLTlZbW1tbW1tbW1tbW1tbW1tbW1tbW1tbnrqjPHDpUMrY30XSoZWxvoulQytjfRdKhlbG+i6VDK2N9F0qGVsb6LpUMrY30XSoZWxlRGNKBhkMtX/90T1t5JT/tN4ghxo4GOof6XEsgf0spxQ7H0XSoZWxvoulQytjfRdKhlbG+i6VDK2N9F0qGVsb6LpUMrY30XSoZWxvoulQytjfRdKhlbG+i6VDK2N9F0qGVsb6LodOpBXYN4BTMmhwCd997Nv/CFztunIt4Hr+vNacuwA8oeAOGCw6RlBWZGxyfIyWnKy2tra2tra2tra2tra2tra2tra2tra2trc9dUZ44dKhlbG+i6VDK2N9F0qGVsb6LpUMrY30XSoZWxvoulQytjfRdKhlbG+i6VC7mQKcyL5jQL8l//mMkyTsh489/hME5+BhNJyTWBS2tra2tra2tra2tra2tra2tra2tra2tra2tra2tra2tra2tra2tra2trc9dUZ44dKhlbG+i6VDK2N9F0qGVsb6LpUMrY30XSoZWxvoulQytjfRdKhlbG+i6U/WECDQ7zh56fo7/6D9X3+edo5TcwuqY8dp650BCr/0DvpaRBNmW4JRXxs4f1zgfrmgqwyi+Z/nSCCJKDYPKVOHwUYIh8oSnAqYa+CjBEPlCU4FTDXwUYIh8oSnAqYa+CjBEPlCU4FTDXwUYIh8oSnAqYa+CjBEPlCU4FTDXwUYIh8oSnAqYa+CjBEPlCU4FTDXyxgQytjfRdKhlbG+i6VDK2N9F0qGVsb6LpUMrY30XSoZWxvoulQytjfRdKhlbG+XP3hqpUJp9eU16n9hoTPDq+y+V6f//EffCHCx/Z9IF55S5vYluC5sKtC/eJzlXqiqoD16diLV4x/5RdxOEldhPvNBdKhlbG+i6VDK2N9F0qGVsb6LpUMrY30XSoZWxvoulQytjfRdKhlbG+i6VDKx9aGwgmMRWl1JCvP/80rTvW741e+D/sji/9yqdwcwvjCFm5QVmRscnyMlpystra2tra2tra2tra2tra2tra2tra2tra2tra2tra2tra2tra2tz11Rnjh0qGVsb6LpUMrY30XSoZWxvoulQytjfRdKhlbG+i6VDK2N9F0qGVsb5dOZtrwo5irf+rOG//40hdw97v9BzVmCb/084Fn8CAeaIyQDja3q18zGuX7M6/gc5smH0O1YrRbhjdIueQ1C7ZPU7zltWvmY1y/ZnX8DnNkw+h2rFaLcMbpFzyGoc5voulQytjfRdKhlbG+i6VDK2N9F0qGVsb6LpUMrY30XSoZWxvoulQytjfRbh+6/i7bv6G4/+fW+gCReUSv2/kn/35iVsf40dKsBEinDWup+HhfsyxsbGxsbGxsbGxsbGxsbGxsbGxsbGxsbGxsbGxsbGxsbGxsbGxsbGxsbGxsbGxsdG3K2N9F0qGVsb6LpUMrY30XSoZWxvoulQytjfRdKhlbG+i6VDK2N9F0qGTt4CwdPfmpdFL0h/6ZuIJp+uyR+Uub2X+VYQ18JlEgUBYdIygrMjY5PkZLTlZbW1tbW1tbW1tbW1tbW1tbW1tbW1tbW1tbW1tbW1tbW1tbW1tbW1ueuqM8cOlQytjfRdKhlbG+i6VDK2N9F0qGVsb6LpUMrY30XSoZWxvoulQycdQP9wAjFH///MCpG/sf/q9qgqRkRN/oOu2mBSNG/EY30XSoZWxvoulQytjfRdKhlbG+i6VDK2N9F0qGVsb6LpUMrY30XSoZWxvoulQytjfRdKhlbG+i6VDK2N9F0qGVsb6LdRUwIxf3P8T7VyhVMvj6Xm4sDuBBNyh/2HTzLDEC7LNwvK+bHJ8jJacrLa2tra2tra2tra2tra2tra2tra2tra2tra2tra2tra2tra2tra2tra2tra2tra2trc9dUZ44dKhlbG+i6VDK2N9F0qGVsb6LpUMrY30XSoZWxvoulQytjfRdDsIEP4xv2IST6pXWY0jfFtMZ6aVW52UB17THq5ux0KMDacLjvDKCsyNjk+RktOVltbW1tbW1tbW1tbW1tbW1tbW1tbW1tbW1tbW1tbW1tbW1tbW1tbW1tbW1tbW1tbnrqjPHDpUMrY30XSoZWxvoulQytjfRdKhlbG+i6VDK2N9F0qGVsb6I2NpqlNeUrctvYSBQW3yWZe5WLYHanfZbSVjv3MH3xYXD7v2FHp4u09+xAx0k+axALSfTxdp79iBjpJ81QytjfRdKhlbG+i6VDK2N9F0qGVsb6LpUMrY30XSoZWxvoulQytjMF83B/ka7oSbcirJwm+LXVhwUDwUoOm17QqgVzUeY2tra2tra2tra2tra2tra2tra2tra2tra2tra2tra2tra2tra2tra2tra2tra2tra2tra2tra2tra2trc9dUZ44dKhlbG+i6VDK2N9F0qGVsb6LpUMrY30XSoZWxvoulQytjNvEAc8lIylnal0hAYsVgOXOCI6jXF69gaM21cQMWHf8CN42tra2tra2tra2tra2tra2tra2tra2tra2tra2tra2tra2tra2tra2tra2tra2tra2tra2tra2tra2tra2tz11Rnjh0qGVsb6LpUMrY30XSoZWxvoulQytjfRdKhlbG+i6VDKx9aGwf5L1csJcXNx/7IMkBGaC2FdI0sPC6yjaw0/dkwTPWyYtJQv7PL6AAcMFh0jKCsyNjk+RktOVltbW1tbW1tbW1tbW1tbW1tbW1tbW1tbW1tbW1tbW1tbW1tbW1tbW1tbW1tbnrqjPHDpUMrY30XSoZWxvoulQytjfRdKhlbG+i6VDK2N9F0qGTi+T6ghflzXYH/zkzRc71MA0yjyn/yj8T4YafP/pw1V4/4zhUv5HQgBVCrY30XSoZWxvoulQytjfRdKhlbG+i6VDK2N9F0qGVsb6LpUMrY30XSoZWxvoulQytjfRdKhlbG+i6VDK2N9F0qGVsb6IzbpoV9DhP/oMqHWLqTRHLM808XranY70f+XP0iq7EE+3mmog0cKtjfRdKhlbG+i6VDK2N9F0qGVsb6LpUMrY30XSoZWxvoulQytjfRdKhlbG+i6VDK2N9F0qGVsb6LpUMrY30XSoZWxvojNun1BBp3Dc+Zu0958mtslAXQ/6vv77jic8RkH//OIi6Q0wAN9F0qGVsb6LpUMrY30XSoZWxvoulQytjfRdKhlbG+i6VDK2N9F0qGVsb6LpUMrY30XSoZWxvoulQytjfRdKhlbG+i6HTqOMEFeFr5cJHBf//rfd5ydYyIG0g6AY6Q2tNcY4FiCIlQytjfRdKhlbG+i6VDK2N9F0qGVsb6LpUMrY30XSoZWxvoulQytjfRdKhlbG+i6VDK2N9F0qGVsb6LpUMrY30XSoZWxmC+abv871TQ+sio53ooPO6qRSmi7RhhKosDeHahPlgOwBS2tra2tra2tra2tra2tra2tra2tra2tra2tra2tra2tra2tra2tra2tra2tra2tra2tra2tra2tra2tra2tra2tra2tra2trc9dUZ44dKhlbG+i6VDK2N9F0qGVsb6LpUMrY30XSoZWxmC+bg/yGIo/F7/+y9ncWww/8j9zRFxIovffVoMf94odT88AcMFh0jKCsyNjk+RktO0/2AL8cn2hbnNcygryy2t6sAA+BPkbROXtuxWZZhhY9fDBbFJadp/sAX45PtC3Oa5lBXlltb1YAB8CfI2icy8PblbG+i6VDK2N9F0qGVsb6LpUMrY30XSoZWxvoulQuk6u4oE72PMQBklaoLU/tnRLJa/cceBdOZJOvwQkwK7NaSAClvVr5mGFjY9fDBYdIygryy2tra2tra2tra2tra2tra2tra2tra2tra2tra2tra2tra2tra2tra2tra2tra2tra2tra2tra2tra2trc9dUZ44dKhlbG+i6VDK2N9F0qGVsb6LpUMrY30XSoZO3dobwChlf4YPhHX//out5/ntdvlszOf6VvcXN/4kDr16GEMrY30XSoZWxvoulQytjfRdKhlbG+i6VDK2N9F0qGVsb6LpUMrY30XSoZWxvoulQytjfRdKhlbG+i6VDK2N9F0qGTt3aYQGFfhkW+Uc6/NzltdSgbuc4nbN4cfgXcd/6w+OK70pjY30XSoZWxvoulQytjfRdKhlbG+i6VDK2N9F0qGVsb6LpUMrY30XSoZWxvoulQytjfRdKhlbG+i6VDK2N9F0qGVsb6LpQk5Y2Yr71rR+xtp87//MupkYanxKZaw9YJe3//TwoF6BaxMvRdKhlbG+i6VDK2N9F0qGVsb6LpUMrY30XSoZWxvoulQytjfRdKhlbG+i6VDK2N9F0qGVsb6LpUMrY30XSoZWxvoulQu5kCLNr7mXsgltb3fpqQV2J9ZORuOyWB0XpJpxqEzqMg7ADjerAAOGCw6RlBWZGxyfIyWnKy2tra2tra2tra2tra2tra2tra2tra2tra2tra2tra2tra2tra2tra2tra2tra2tra2tra2tra2tra2tra2tra3PXVGeOHSoZWxvoulQytjfRdKhlbG+i6VDK2N8wWyHqBzcH9+GM2byaigfA3gXSF84RlNW2FLqx//3qMK062AAfAnyMlpystra2tra2tra2tra2tra2tra2tra2tra2tra2tra2tra2tra2tra2tra2tra2tra2tra2tra2tra2tra2tra2tra2tra2tra2tra3PXVGeOHSoZWxvoulQytjfRdKhlbG+i6VDK2N3m9a/QK+63/R8h4V0n4q75/45z/eUNNfM3pa0CUrKUO0wfCU/ovoABwzDoyWnKy2tra2tra2tra2tra2tra2tra2tra2tra2tra2tra2tra2tra2tra2tra2tra2tra2tra2tra2tra2tra2tra2tra2tra2tra2tra3PXVGeOHSoZWxvoulQytjfRdKhlbG+i6VDK1754qKcsYF3M68HWj2n/boowm38kY+B0Qo4w/zGxYgZeriN8yRf5smHRktOVltbW1tbW1tbW1tbW1tbW1tbW1tbW1tbW1tbW1tbW1tbW1tbW1tbW1tbW1tbW1tbW1tbW1tbW1tbW1tbW1tbW1tbW1tbW1tbW1tbW1tbW1ueuqM8cOlQytjfRdKhlbG+i6VDK2N9F0qGTt3aYQGA3fxm4nf5FNmEG+f+5D+/uNSOTvUuJpT7lySCHMG2xcMFh0jKCvLatfMxrl+zOv4HObJh9DtWK0W4Y3SLnkNQu2T1O85bVr5mNcv2Z1/A5zZMPodqxWi3DG6Rc8hqF2yep3nLatfMxrl+zOv4HObJh9DtWK0W4Y3SLnkNQu2T1O85bVr5mPELpUMrY30XSoZWxvoulQytjfRdKhlbG+iI/dfHrzdUtX/zrqpzZf0tpQO/qNVFuSxn9qCy/9Air7GANp2AHG1tbW1tbW1tbW1tbW1tbW1tbW1tbW1tbW1tbW1tbW1tbW1tbW1tbW1tbW1tbW1tbW1tbW1tbW1tbW1tbW1tbW1tbW1tbW1tbW1tbW1tbW1tbW1tbW1tbW1tbnrqjPHDpUMrY30XSoZWxvoulQytjfRdKG7aAs2qWOraBM+LcX/T4KFEx/8jiVH8u/6X9Vj0On7N6wjfMkk+RktOVltbW1tbW1tbW1tbW1tbW1tbW1tbW1tbW1tbW1tbW1tbW1tbW1tbW1tbW1tbW1tbW1tbW1tbW1tbW1tbW1tbW1tbW1tbW1tbW1tbW1tbW1tbW1tbW1tbnrqjPHDpUMrY30XSoZWxvoulQytjfRbqKmBGLzECEi8Rx/gP0HRTCf/78u2ZZK69no1NH9M5mmrEJPUIr6LpUMrY30XSoZWxvoulQytjfRdKhlbG+i6VDK2N9F0qGVsb6LpUMrY30XSoZWxvoulQytjfRdKhlbG+i6VDK2N9F0qF0nUdntTZiA4/j+sMHP4qX/BJLXNrV50PZUnr/F/+LBuRQOTTYXt4BZ/MCGVsb6LpUMrY30XSoZWxvoulQytjfRdKhlbG+i6VDK2N9F0qGVsb6LpUMrY30XSoZWxvoulQytjfRdKhlbG+i6Ia6unLF9lAd6zUH3ev//nT51qPilj7EVmVdqWbkXqaaSB+C822N9F0qGVsb6LpUMrY30XSoZWxvoulQytjfRdKhlbG+i6VDK2N9F0qGVsb6LpUMrY30XSoZWxvoulQytjfRdKhlbG+i3UVMCMZU7KAMD0dv6JGWP/N0alv/3+fbIYBZHztiDkYyuBscnyMlpystra2tra2tra2tra2tra2tra2tra2tra2tra2tra2tra2tra2tra2tra2tra2tra2tra2tra2tra2tra2tra2tra2tra2tra2tra2tra2tra2tra2tra2tra2trc9dUZ44dKhlbG+i6VDK2N9F0qGVkCw+tmgG0ISF8BueJZEj6r2f7PVkIi1f+tgFMKppn/5m6VQ/vGYHXdngDhgsOkZQVmRscnyMlpystra2tra2tra2tra2tra2tra2tra2tra2tra2tra2tra2tra2tra2tra2tra2tra2tra2tra2tra2tra2tra2tra2tra2tra2tra2tra2tra2tra3PXVGeOHSoZWxvoulQytjfRdKhdzKcZqkBDF0fwJ9iUrcFdRPcJAvKP37NnC+vihaauNlQ3ith1QIAvxyfIyWnKy2tra2tra2tra2tra2tra2tra2tra2tra2tra2tra2tra2tra2tra2tra2tra2tra2tra2tra2tra2tra2tra2tra2tra2tra2tra2tra2tra2tra2tra2tra2tra3PXVGeOHSoZWxvoulQytjfRdKf9ns/wKbWlW+bf9N9s0zlBxLAEMGcv89JhTBjcKqG1qPJWuuoRa/crY+HDx+7X9PL7qWafd6/XaPUcMNRj4cPH7tf08vupZp93r9do9Rww1GPhw8fu1/Ty+6lmn3ev12j1HALP5gQytjfRdKhlbG+i6VC71VyDVIaNMcLs5WLRsujZrfPr9IRM0ie073FSqeoRkJVWnEd1u4pIfLKt83GJP0dHjEfchJ+jo8Yj7kJP0dHjEfchJ+jo8Yj7kJP0dHjEfchJ+jo8Yj7kJP0dHjEfchJ+jo8Yj7kJP0dHjEfchJ+jo8Yj7kJP0dHjEfchJ+jo8Yk5fuVsb6LpUMrY30XSoZWxvAUR/UJ57rFC4kp/s51OxaFpL4NqBRl7P+N/t7+iWi/kxUnLcoAA+OO4o0sncjk+RktOVltbW1tbW1tbW1tbW1tbW1tbW1tbW1tbW1tbW1tbW1tbW1tbW1tbW1tbW1tbW1tbW1tbW1tbW1tbW1tbW1tbW1tbW1tbW1tbW1tbW1tbW1tbW1tbW1tbW1tbW566ozxw6VDK2N9F0qGVsb5kXqxXQSP7iRvHdM/8fRs+v37z6L+vkITD/7IocU3lZP/fME9x3z7D3ALP5gQytjfRdKhlbG+i6VDK2N9F0qGVsb6LpUMrY30XSoZWxvoulQytjfRdKhlbG+i6VDK2N9F0qGVsb6LpUMrY30XRDXIJTX/LBnf+SqUWuzitGndvrRK2OXVUoJVAX/+ZlYhE0o2XrqjPHDpUMrY30XSoZWxvoulQytjfRdKhlbG+i6VDK2N9F0qGVsb6LpUMrY30XSoZWxvoulQytjfRdKhlbG+i6VDK2N4CiVPYk7T25BPtT/oCulc4Wkub3LONrIPea3XI1/SWbIjV2nKy2tra2tra2tra2tra2tra2tra2tra2tra2tra2tra2tra2tra2tra2tra2tra2tra2tra2tra2tra2tra2tra2tra2tra2tra2tra2tra2tra2tra2tra2tra2tra2tra2tra2tra2tra2tra3PXVGeOHSoZWxvoulQyd883VFb9uWeqpXg26g1oj6UL4ydSjl9XsfX0yzzDXf9Ae6smZ2LMVltbW1tbW1tbW1tbW1tbW1tbW1tbW1tbW1tbW1tbW1tbW1tbW1tbW1tbW1tbW1tbW1tbW1tbW1tbW1tbW1tbW1tbW1tbW1tbW1tbW1tbW1tbW1tbW1tbW1tbW1tbW1tbW1tbW1tbW1tbW1tbW1ueuqM8cOlQytjfRdKf0EoTnmyhVc2fTb+scNMDhG8qrF6mncPXV9vks/0cUyuBscnyMlpystra2tra2tra2tra2tra2tra2tra2tra2tra2tra2tra2tra2tra2tra2tra2tra2tra2tra2tra2tra2tra2tra2tra2tra2tra2tra2tra2tra2tra2tra2tra2tra2tra2tra2tra2tra2tz11Rnjh0qGVsb6LpRJfacbIgsXVm/+v+72xUqQN3fdxa9ZVb/9yYdng2AcbW1tbW1tbW1tbW1tbW1tbW1tbW1tbW1tbW1tbW1tbW1tbW1tbW1tbW1tbW1tbW1tbW1tbW1tbW1tbW1tbW1tbW1tbW1tbW1tbW1tbW1tbW1tbW1tbW1tbW1tbW1tbW1tbW1tbW1tbW1tbW1tbW1tbW1tbW1ueuqM8cOlQytjfRbqKmClAVf/5hUr/xFspU5Lhycz/RajAq+skLmjkHP3SD1qqiX0AA4YLDpGUFZkbHJ8jJacrLa2tra2tra2tra2tra2tra2tra2tra2tra2tra2tra2tra2tra2tra2tra2tra2tra2tra2tra2tra2tra2tra2tra2tra2tra2tra2tra2tra2tra2tra2tra2tra2tra2tra3PXVGeOHSoZWxvokLjf5CbsbcCoH/h6HdCKT3v/ywGiI2k//XIkm5B3aOHSoZWxvoulQytjfRdKhlbG+i6VDK2N9F0qGVsb6LpUMrY30XSoZWxvoulQytjfRdKhlbG+i6VDK2N9F0qGVsb6LpUMrIGjsGn/7GG/ePvk80Dzwm7xdehg38jJZ0s8O2LHVbG+i6VDK2N9F0qGVsb6LpUMrY30XSoZWxvoulQytjfRdKhlbG+i6VDK2N9F0qGVsb6LpUMrY30XSoZWxvoulQytjfRbqKnl1Mg9dS6bJH+0eLEYjf/6d+O1Cm4hNiREHkh8sq3zcUkPllW+bikh8sq3zcUkPllW+bikh8sq3zcUkPllW+bikh8sq3zcUkPllW+bikh8sq3zcUkPllW+bikh8sq3zcUkPllW+bikh8sq3zcUkPllW+bikh8sq3zcUkPmohlbG+i6VDKxn6OpbiNgxpxTA3/0P3K7k41xUhQnjkqImMjCxsbGxsbGxsbGxsbGxsbGxsbGxsbGxsbGxsbGxsbGxsbGxsbGxsbGxsbGxsbGxsbGxsbGxsbGxsbGxsbGxsbGxsbGxsbGxsbGxsbGxsbGxsbGxsbGxsbGxsbGxsbGxsbGxsbGxsbGxsbGxsbGxsbGxsbGxsbGxsbGxsbHRtytjfRdKhk+HHiuoHN2FHKEMrY30XSoZWxvoulQytjfRdKhlbG+i6VDK2N9F0qGVsb6LpUMrY30XSoZWxvoulQytjfRdKhlbG+i6VDK2N9F0qGVsb6LpUCfFRnjh0qGVsb6LpUMrY30XSoZWxvoulQytjfRdKhlbG+i6VDK2N9F0qGVsb6LpUMrY30XSoZWxvoulQytjfRdKhlbG+i6VDK2N9F0qGVsb6LpUMrY30XSoZWxvoulQytjfRdKhlbG+i6VDK2N9F0qGVsb6LpUMrY30XSoZWxvoulQytjfRdKhlbG+i6VDK2N9F0qGVsb6LpUMrY30XSoZWxvoulQytjfRdKhlbG+i6VDK2N9F0qGVsb6LpUMrY30XSoZWxvoulQytjfRdKhlbG+i6VDK2N9F0qGVsb6LpUMrY30XSoZWxvoulQytjfRdKhlbG+i6VDK2N9F0qGVsb6LpUMrY30XSoZWxvoulQytjfRdKhlbG+i6VDK2N9F0qGVsb6LpUMrY30XSoZWxvoulQytjfRdKhlbG+i6VDK2N9F0qGVsb6LpUMrY30XSoZWxvoulQytjfRdKhlbG+i6VDK2N9F0qGVsb6LpUMrY30XSoZWxvoulQytjfRdKhlbG+i6VDK2N9F0qGVsb6LpUMrY30XSoZWxvoulQytjfRdKhlbG+i6VDK2N9F0qGVsb6LpUMrY30XSoZWxvoulQytjfRdKhlbG+i6VDK2N9F0qGVsb6LpUMrY30XSoZWxvoulQytjfRdKhlbG+i6VDK2N9F0qGVsb6LpUMrY30XSoZWxvoulQytjfRdKhlbG+i6VDK2N9F0qGVsb6LpUMrY30XSoZWxvoulQytjfRdKhlbG+i6VDK2N9F0qGVsb6LpUMrYygAP7bToAAAAAAAAAAAAAAAAAAAAAAAAAAAAAAAAAAAAAAAAAAAAAAAAAAAAAAAAAAAAAAAAAAAAAAAAAAAAAAAAAAAAAAAAAAAAAAAAAAHr3hsly44/dUI6Z56fOM5Ne2wbFYO+sir6swELo6yltWJt3clCYdyffczzceX9+G5fEiv4OPaHHKS6eqXbDr6DP+7EaKVFDHzveveynxpMM/9pK8H+Key2oOEf2pHYRh61DZdMtp/3dL18uyQzoslpv5pe7+2m6ELPEsA2UJ4kyNaCw9MDaAAAAAAAAAAjGNBMLglWAVZbbssscCD2nBuIrjLqfOyPe6+/3kzpf9FHQj3wbX/Fcww53y8Xer8b8+MeK9crX7jpdjrfvtz1rlf1co0U+tvwo2KYbyRP/e8HpDiyB/saNfUfLQvAX1IQJviCyTZdRgCnRlyrAungbWTxZ2RasCm03839TSy7d+ld251dw4fr3DVnCcux/8mEUQvssuUeS2e/Lhqlng2RoNY08UjZf7GE04rOOaBPzLZN/EHt6bH0tHylBO1f2fK+dy5QEintKHshmN3PXYoJqYgH4HHA2rK8mi6+M8bHGMfqte5XOAHSeFPSZNg9RvPNVQFzI0sBO+k3vJG+CJ8YYAfAAAlSa+XXJe5gBKk18uuS9y/vwAAAAAAAA35pO7obQZlUdiVIbr7OgEGw2f/47ffrTYsku9b/btCeh0No/SFfKw+z06UjsZeFXw2V7Uat/g/NI39JUrRLmv0hNAbtFF93SU8UdP6j9LOYWgxL9UF+yY6/XdLuOxbUtaVTO89d7vkz72fTluIl68la29tZx2jfPSz50MPps3P3q/k6U6yd/ViXaGoabOhbH1AanxRSFT0hj9PZ5tvFEBaS1VmdHWKSTJXyoz7DoROYxFs5evW9OQYWCY6cN3+ybMyfCXiOg9j+8qLQAmvn15UOsy9YOHrGBhCUXtGc+P7CPsXLBGthwPi0EYIP5AYwgWf7C9Ep2Z45Baw58PiZHjow3NMpbdDyXtHBqHwLXae04b0o09rtHhtKLXae04b0o09rsgAAAAAAAAfuGZIFg4ZenQD+Z+VEIh+IUi+QnroFcGRF56F2c1BIgDZZ0t4HzUWnS3YyQu140Zq44MNrta3G0uvIDDfzzOrAoTjiFshbZ3vr1lD//cQcpMzq/i34pgNXaf+RL4bn0GPOM9jVp7TpCD8yxWX6Sg5cRHjoJdXmJm+8AwmVoz7WxyIDmu9ArpFgHubZylYmPj6Q2Pt/bIaxbA2aW8OcsGPSUUV891yvEouqDSnrhZMFhf4+5yrYKXmRHDKDzXmm2SchOMwiG145SxYFCw8thVaS+SadhdrXElcepHf5d+FN0kYyDOPJdDtI4txeMpXDZbNnxnuySpImaylKK/fBi3rAJeeJdkI38F3Zh3m2eKQojXmVMYMC950BFxfINRMfY2uQBg/Ei8f8JEw9AgAwgAwgAwgAwgAwgAwgAwgAwgAwgAwgAwgAwgAwgAwgAv4AAAAAAADKLcgYuwIrt58WTIMlvRnUGYxhMHSqYldVHKTcd2+Kkzn/rFzWyoogFYBPnkAYnJE//iO7szF91mBsopo6VWMX6dbMHtMOz+/9GmSz9iOgMgYCglpDycIKk8MgRmfF2r5tmPwgpre8Na/fnk0lHC7TnvMuTo1Rma1zK67meraK6PKnBrRm0z2ROzwwRkfuV/2gNKfh+MC7KWgs4QyQuPfUPutwtIWBOH1SaWop9p9wjJCfe1vxEfDFF1OPPxU/Jrbzd2obDW7yObBjyXeZqrrpnSfSrwg/qIf085sB6UWnEZejL9HjCZ+HOUYHpyM1H+fiYmYfHEUUhRgOYZjbukVhX0KIecw8zr/SI9JB9Vd01DowdZVWQAAAAAAAAAAdLTacxSiL/v26bLEZNTuNVoVzIsiNmq3TeTy2TKblRM351mlwlFzXVTfnBlOZslNKZqZ3qyNIxu0tpqDEzxuYXFa8RlXabceofY3mQrstJfcxl8VHNobxkrzQdQtu85lBxF7CNUBLqwB0FMOJlv9DVCKOwTueneQ+8C769SeRfL3TyPl53zErdm6hhbBlMd8Kk/n4KDl0Wa2h6UT13q2l6ou8c5Lx3h1hRYGZOa11dS7+5EqprA/xSqBeBGnq3ZJ5bcpctSJrORV9CKVyWCnq7Ny7Sjc29z1dYvS3kiLrdgfr4bqtp1aj7EIBVhRwDe/gTDdmMGhN/2pU49efNNHL/7rmdlNboCK4aOig9JBGwcNOsV4agNxj7eR7yPeR7yPeR7yPeR7yPeR7yPeRfgAAAAAAAK9g+Iafl/+oIEe4/of31d1+qGrzYYKi4wDAMma1rtu5JJuapmFFQiYCr3Ev4hH1bvGWnAIK733n5wejVdkmGDPcc+Bj7g14WFBynfCbmVWYg1dZNucUg1+WW0uqudk6ZuxiR8128izZ2lTC6sLoFJkYMfSJjmgBrT7F5mcfC805NKNBXsgitrFTFxHUlVpK5qKQDG5CiZFdbfKTxbBFZ/l5PTFEju3o5adUFDxPzIwH9tyveOn6uEXXPn9h67JM7bd4Hou/3wgL7w6tJtqhDy3k4eZNkuIs/bRJbfWLHRnq4+DtxqGlQtCmOcrYM7bdPGD8UqTEhF/rYagH1xGOElaZ0RyJYk4dAC5Mrebo4pztB/XLeSuZr1BH9/JMypG2Ueyj2Ueyj2Ueyj2Ueyj2UX4AAAAAAAFgBZdb6DPuBsM/2H4rdHHwnxwuab0izqi6+0MHalgKGeCphVFVIDu5VRmAqejvXcSic9GtJ4xFaUO9tkRXnxy1k2fAQGdfko7w8Pv5CWsmx7Au6oeM6CabTp/fljc+rlAgHKo26jsrnVOSAkt7TV05bJp/T1JHSENvcCqxV2zz89aIF49ywcwYXYrqMCuFtQyjlmwTxEwc+ahOZs67ofI4+JZK9vF8JzjhQ3qa9YedcRQBAj5V1tVDbrTeL4f6m3mM9yGQX2M4Rjcprith7blelb2LLaF0Ra00IxL18iXJJV0yh5ihrNsObO6+VQXsEMgFGp+Odn70hzP+eQjJmme/ueuJG49DCyfv9wy8loh9Lpwr/7/OoXTaol0Cp6UcGowxBzc8kUJt8tww4+kKtgAAAAAAAAAAOxvpfc5aN0123RSspRO1Nylsa4vnwg/2MFIL5Ynf0ywZ/OXncUY9tQEsVyf9KfFq3HnCPgqqa6e7paXvIoPAElRKELEJ/wRbkERRvBr2JeSqw1sMzdOozwBvDXP5u6/8qSxpKyVBiqLWMdQV31ZDunA/rJVwbOk19lXMnLK8SqnOKLYIltohMMmiZVxxR8Y8f1zK2jdlTPqr4mMQ8viQ/UGoBXJMQ77ZiczULPio5dTG/tcjFjce7eGo7ad/hxZtd/S1hdNM9pamoLzp7Xct2FNAynqeIFR23X/GwIvGSaRx4Ks7q8gsyy1Y6eOFzBDEF1eObmVn4Vg0NTCcxsTVBY1orr9RiiXDuiYYanRUJ84b5Zw/vJ0gKddKWHY9fkJFG08tFTR1c7IAAAAAAAAAAIAulpcvNfm8Qv5Khs5ldo83MoQx93BYvm9Q34PknYRuOJQ5lXpnQ/dgJqvmYja8jfzkc/8SutmE5NxUOH9QJOnkKUAFm4BpIrCiM0a6mLR2XsI4PYCY4fVtIXI4vYUqZcjZ7Hzf4zSauX94qlhx29P7rxl9EtmREHmHjDH+nd5xYx1vEnQzCCr3DmaVaQr2lDrWteX/py7XD61ga2uWkAbQSTDcTpfCvuYZj7Z3NguHQYrJLlsYvc73afOR63R7us5AftzubmjxdwBv1GZd9boE3MxbQ/GSkM1bDYzkpF2vOYPtLKVOdAehjzKBNUiwPtwHB6eC75DQSTba2Er2DzbgzECisoGFqqPhYPM938pBfhURztpuyVp8HuYawKurl5bgzwEbSg8Yrl4ZeXao8iWAAAAAAAAAABXsHc4nLl6V7cRXqZf3hIx1V6qPal8cypgsTYHQ2aVvuqMBwnnvOEYpjVN9tBdWXLg/yeerlzfsx3JgMbGxLQkkL+A3GOezwk9NU396IB562MV14cBZ4AVK3ow+VyzzrnOc0vTv+eG68fno9EXIfZ4o20y3pY14oH+oWpA5WuAf/TdLBE+9vhcwAhmMu1L2QxyYNSIp1jGXBYgJuD+yFves4wOgih6iWceI54v2Jd/tWwXJrS12F8fBSSKQV/dnGB3mHzxjJxcOFEm22ulNdb9jYdLXFVoY1r7vMyDFheEl8YL40zvYQLmEd5+jsHhon2+fJ0owFjl0xK6mojIRe2iZ7+D/AhpaPQPFzrXghJ6/ZaWt/B6USMs1sOYj3MfTuPAwKkjEdr2dpfTiQsUzJr4SgMIiFDJEMDTgmJRkA9/GVweQ/PrisAAAAAAAAAABSPlqGirQHnHYwjH+WpE8ijspMVCSKOmlhcSVd++JONOYNGs00fx3Qi8Th2roXPMO431MeKMa7l5iVWOeWk2nORS1zLo8CfiRH4Zq6t5qEM7QG8TW5s/RgRXk84nfz5gLJpAVZAKykrJQP3i9gUvhJsrqJ2eBsHYQfsZY4TRhT7NVjWufkPUSpBcoOufuSacl9ypNrdBrMDdONaKMLrzyRAvAlwx6VyiMB634RU+vC3WmhNu8I+2KE/710dc9lc7kecOPR+VvRj8Ieo9U2XVsm5Ohuz6/oXizOFZ4x1E/djyMn/CsptN0m3sq4EMYiKerT6yEJSXfRzjgMtGsFO75l50z/yJW/53by2fA6IXRwtoWI6ZLzzTqX4S1apVi8G8GcN1HFhdx4zwqI3VZAABnqMSypJhoQ9CwWqkNTSgIkJ8keyj2Ueyj2Ueyj2Ueyj2Ueyj2Ueyj2Ueyj2Ueyj1/gAAAAAAET8iPHRGQqKZJRJmvK2TYoYK0dMi1WTzzZfbh+K953Xlw56veWvFcB9emAeYgxu879uZR+tKI7oO6lt5AUvCDPV3Hy4NNPNOMJ9BxBB6c+lw/HcwaZaL4ON9MiNL/XLK/Tn8GQedI83ytdOnC5g6Ew86jVDnwlfxMaPVFV5UPVjq7r48CuJpqwxFsGI7NwYrss7tzW8QYE3o6yN8tEvaqpnFPAGY28tp7AUR0QLWJMchMvUaVGsl4vU1W5gibcOkm2g0ax8flzFOHmHJ/yAANGGa36tyDr9t+WuaFDB3aV6CCYvlXCN54pTmYFYbLkbF10W4UIRFVL08QXXpNG5CELy5tRQGIScL3x1kf1ApZEaQzbQuK2Tq04KOxaZ7aGUNI84k7DnzAiH0l1/oCh8Am6EQHkK6DGZwugYB4EMZBq4Mgc+de4DXx3RYloaS1QAAAAAAAAAANmhLFdE9+dPfjZt5O//gzs/wka1kshDD7UyAaa+Zr7aXUxLQpEUlWoCh2T/TQ8eJw1Pha7Q6BjX7AMUHn/koA/CVWdBNQ4lZSH6DRGaEOg4tFALAk3U5+bv7H3Tq2zOoaQVOc/wMaTA5pU+NZcrLGBVFqyD/VfR/WpbaxqlNKeE1j3muigSDt9kBDEvi5M48oVcn9vDmb6rHBKibwLLywaSxaGoG+73eJvFBVznJn0FA+fvHlPazwRwhAkiU6+R/eaEdkXfj4lUF9i9+fxkxsY54vrmsb/ICcOkPSMk42tGl8IrM6RBmDg+ato1YJzU4D0vdw4bYgEnATogX/Zd7TWY7Svhm3lP/+ZQYGMXICuV5gd38D4CExtUUycf2AK6d2z6LSvdodrjvLHHE3HPy5uApe8U+Z107mS5R9+ScV3hd4XeF3hd4XeF3hd4XeF3hd4XeF3hd4XeF3hd4XeF3hd4XeF3hd4XeF3hd4XeF3hd4XeF3hd4XeF3hd4Xd3wAAAAAAHNBfcuaNfuYG/04OtHKWCU8bnmM5n8/Lfe3oX9Ti/sU8Zthr1bb8PGsAUo+UPGHmIq2BLRcMvTisHWdc6+9eB/q9UKmQ4+kTgb+tet1AX1LQKjYcuA67YoABk5opjrS0JGTghVY2Sik4mQWXBHrUZ2+tUSLX3ZIIe5X3TOGCDSF9bbuZ6WeSwRXdfI7Kq0l0tTIJuzIJECTpbBZbP9SUoZ0A2wn6J2oxvfaYCjxY8xvB76DJBhy3WLbb6H4dMVgP0FCBcZrGPj3wOU2BZc2rntpYNdqdeJuYBPw+enLggwlV/Eqh39sZWbWDONpi5rAe+jDSUQk2o5oB8Ebngm3L6t2p9t/jnDx+DuxvhWwO3oHkLydmE3oFx1UNR/Re25eKtg96biLOwO+0WDWG9o6zgQCP+kAD3WDgXdqaLPtk0Y2Xnc5np96hk3iL9T/MBzBc9kzGrjgZbcXLYlklErBuG4uWxLJKJWDcNxctiWSUSsG4bi5bEskolYNw3Fx0AAAAAAC5+6X3bwpgv5vPHuSk0WJb/pMJJSuxTHdVA5wER9tFXv6HaaqpV77fXoTjoGVav/20TaDlcXmITcBXrauh13gRV3xWiZk09rBszBdvsD5RRn056NlwIC9a6zB0sHr7rUsgDy5eHYWV51PLWxBsXMCmKs9pcs4TfiRHThSRaNDb0J2VtVk26NdH1XdT+BWb3PqzXRk7bZYqjj2SQVzvFd4WkWE/WagdCa1OC/MZG8IecEz9W3wtDkf64DAKCBTDxM5QBEZsRsxTk5b62ND7NAIMzVbrO9HOfFq6YgfqCG0/PhdMSI+c1gMsAnSYHDSwFUem4BA4/1rSpyHNUm/KXkAs1n4e1AHGIx42CCd4zJ+Yg4QsOg8NMxXKL2Wd1/GDeRAUA2ILzpIxS/91h4+uvnWALkMM4TjwzcPhsaT5wUBcCCUIZMyqomZFFzfBuo/uiWd82AAAAAAAAAAAAAlO84ZNS6ndE40kRTWdWy7UYJ6GVnyq+2uebErileW+RD5L1ElYdqykRE+1mCK2JNld6NOKRfWPJ1WSaM6158xo1TjSHFPIAK1z1/+TZRWE/X+QXqSan8/5FqBNeaAAk7+CEmiNqGb+dKWAwPacPsNZ4yeMh5dh08ds7iPoFkkpAmpLTScyBTVV2fctbX4vnx2E8WFqkQ6EyOE+ZBqgI/Lg7PcrUUxMvQsxBo4Q13PHYew5V1CycNYYJoEqboyPrVPv+fD85+s/rDTuT3K8Sv6/mJC+ttz2jveyByGUlNz/AFiRCft4uR5EmS6+eDxCXXlxX5Xwh6yk4WOI07RMH0Fln0bgchcE17iWO/zr8k+bjgwh7RtAbCxmpCsgecRf0zE6N6lJcX7riI9V/Jru7Boe3fFTi8vT1AYY1UTAg73dAwO8l8D9ATCbHqul96BJ6JPg5VpSiR7KPZR7KPZR7KPZR7KPZR7KPZR7KPZR7KPZR7KPZR7KPZR7KL8AAAAAAIvnIROse/kcMvToB/mMNH/Be4LY6dltDrQgV1WGJ7UiVViXxy8w4gujW8CQ489Imf+X0cLN3IJnnQy8dBblW9tp4pj/tebdmR6XrtElzNsdS/Myv7CzzKuS2omzX06pChzz+fCINT555yRcRIMthAOghGEqQCcvQEDBvfeqcLaGaAygOqklCAdkPkyrIHiv6btpMIgHOge2eNItMo1ItiRSRm2MGDF0dUIx7WBddkv5SKZ/2Z6HBTB+wHk3LRitOjlFXsiWlo8FPqrcTOpTI34owK/H2O5HNoEjKcyzSaV4855QbOE3fc7VX8V8v1sWhZABjgB6ENJuW2FEgmoq9NfEb/HSCCHpTkO0tUW7bnzFRZ1Kb/xH43N9A5CxVKSsuV1NSpzRvw34keRFwH+/t3p+XFVfOn48l6EJmHWUFCPK2r2EURdE+ESPx2fzMm5cbOCnFx4PL8K/gRxLYopBW+daTFQPBnkNo07S0uaL/L/y/8v/L/y/8v/L/y/8v/L/y/8v/L/y/8v/L/y/8v/L/y/8v/L/y/8v/L/y/8v/L/y/8v/L/y/8v/L/y/8v/L/y/8v9/AAAAAAN3rp0pVG+WHaAu7NKQst7Ioc+Gd6zW2V0Hzr0r+Li6DenRuN9fh41e7DiILQZPGi4//bP/uN/UZiO8EtZON6WmbCeJlmuxpPOSdRsZuZvXFs/2hTpk+HtUmOpgZ3/Tc/ZBhLlvgRah8RpDRphi6WET22AQbCOnrN3cJmRfenaC+JHn8q5O09eva1zfGNXB6teoVRv4Xe/JzkVEMCtBtpmCZL1xn7XSWhqbJMo+49F6mXQ2q6YnL1H3h13jX7CwpYCjE+tpXi8OexP8+hplM8rPBfa0jsUQjP2hk7T850iJewscWahRPAVQA5HQUUz2kTC/a61fSnjyYC4l42z3JnLXJQC/tetAwqDqjiIEDVYuVlHfrcQetg2vnoGyjeUl1rtsbzvGtmoTC3ptw2LekbklEB11nfnS7CIse3A5LsMpo44mHfhOAgQY/FAVIQy0AAKeMADMwcBneUbgWfAPRPZUV0ICnjAAzMHAZ3lG4FnwD0T2VFdCAp4wAMzBwGd5RuBZ8AAAAAAABe9kq/4aLzskiX7l8+eDwmUz0/eNDG+Yfcc+Bj7uvXvT5vVtR5T0s3ROq/xpYigUN1vPdd/xwoUDws89yacIWHNLfKVlGrIcJzLiPKWnOHT8a+tMR3N3YUJWZKx6G/dNh2kYrClOq5b5x0L6dv8ptvXsTJPcEY75c7dw21k6lKg9rsW3B+u78VL5NouKtThVcQLsjDHSuFHbryJs21ejszN2+BMBye/5lJoCk0JDKN9JiFI+6/sm2ijzx45RVHC8UlvUVJoyulLZAxwupSeekrGtDcApKC73IeRqS+1zHxjnQpwKMd5E5CUuTts177xB2/foTH62mlJcSaMO/hCIhMH3YrbXf8YskxEYVQxM/vMHIsMPE0CE7HKyLV9lGi5KDuim4hf60nhtQ8S6dxSLzixakgQPWlt/LXigFA2GOdZWZTADmkMNcVg/UBI6gN91nHcbHo6AAAAAAAAAAAAFrDeg/a3D/2u2aZf7eoO/AC5eSVtosG7IvXWmjfXI5mWm7jEVCRB86Ft9P0hIcxvToqofchJEtPbqinJi4Bt5B9EnhlQJkYLHAiWkjR90+AFSt8KfgfifD/ICzl2xjaX/Wl18CBCd3vspvDyruZNXt6Nwxu+JQHmxRiiKlDfe7s9l1gQGKLQTZ9nhdAKjBReS+j89qh9GORrkV00Rmoa6e59LOQysdKdnUHmDIS5CXCTHBph+pI1FfSdeLhNSe+99UPsL2vXRjgKsMUzU/KdwlSOOAr+TFM1uHtgjVhJ4JviI8NHBRShS/tSUVmXDA7QSCbWMz3S+JnqkfHAZVJeOKqzE2SK55PbL6XNPpnCz8ZvbOWOuSC0XbKvYSADXMYYRInQvL7XGfmXJTWKdRDL0Rfq7m47ImCWXBekvvtht/6O4T9oeNl8uV/sG6B2Cn/VH4nsnCk2UEUL7cfL/////////////////////////////////////////////////////34AAAAAIYM21XSZeO1oGkZ8W8TVbwKUg1cCCtaBKvx7k+My5o4/UsuhEg5rZthm6x0SFwuPP/6resYcS9mCNyQBVvkGcuWbSBGoAO+U8wUg3TWNd4lFMr5fLhdfx9/Y3ao/OiPpFJxj/2gkCnCvfz2g7PZUbuYgmj4YwzU0nE5rj2cnaFzeWRTKXDHI5aKsF1PJUHuZzrunmOmH0FehU1i2TVBRfR5IY9xqnZZOMXQh77z6pUdm+hZdodtSBZeCxjLAndCpMIICPKCgKrvVbZdtPXFMvp3+cZGH/irdJbXHIM52w3FNBMLpqOXbjSwGuRTLQBZD4jgNM4q7uO+TL2i+JGfZmFCktllguqb6Z7updwTpllA9EO+sukjBhNCkaKNMoJA3caf9DNHc9IAc9mhC57/R1GhJdWs84h0O2S2I2Knp7qywze+j2XQo65AglTaLOt2zLvyW0Y2jFTd1qpLaMbRipu61UltGNoxU3daqSzQAAAAACo2QLAtoFdk/qkQmn84125kRj3I+4Plpp9INT3g3kplcLWVVUPfImb3gmGGtCyn34n4oMrN44mcubezcPe+hv19/CNf/qQW4YBJN5uVfHgqhLYPpXej9dh5+EckJV4P/xiXI71afmzh6Hs6avRwEzyMsYURlRucJ6tkT1uR/qj9pkO1UMmY5witU/C1MJ6cpLUIKReA2k8BWRM46JbzifMIV9wS9T7nZAKo+bg0+ekEd1N5HK9w9g0qSNejcZJQaZE89Jctnq8XeOt3+vvyjBt7yGma0ZjwP9r1Nw2DIXjVjDhOt73o5OUkfHeCNsyHinYWyjOerlf6nTrMqAkVfcEh4gBtejMbHBqAipqY7ynQWoRtuYj4hIFp/87Kygw9+Qy09tr5Tr2aVy/QyahM3wTzmbdq09TgTn+Wtigoe4clAnzbCNhxmIwwq8gWH9tUoUt/ZJ53c4Ar3eXmCvd5eYK93l5gr3eXmCvd5eYK93l5gr3eXmCvd5eYK93l5gr3eXmCvd5eYK93l5gr3eXmCvd5eYK93l5gr3eT4AAAAADfEH/bwLOle70NEgsGfnt252oEAs/MYZOPJ1+K594i1ZOSziB8LbWqCHKrYRWuZl+6zn+OepXn8Rt6/JxZ+92qSeuVu04UDePMGzZeGgoqQ/EpRgup5EL3gW64Ykv39zdpCL8f8Oc1wMGPAucF8thdvS5bXKYsdpQOHcsieKTaAmunclaA1pz3xwIUkgoN+1EGXZMa9jK6mjFF130HmSHaAlFyHlzM1Chp+JhYoo7iLAKHQYExbA/SWlYLvuP7+4RZZPA9Yeg1ZLCxiF8RPqtkgZPrLmzJJsA7wFjB5CTDcJI8XD3MmHcd1kde5PfQ+/UY4ruIZ52Ms+U+8lurmaLxQIYIc+RIWq+K0UAQHHLMEunsiRY/kSSiYl7frMvV9tbKq35NI8hbIrjmLRBb4DRH+1zKJAsx2+YSU4307HsCR/Sg1/kRdiTmTQFRvtCFm0qIFO7Vx7a1Kb9BKFHTPJdeo+CmDM6lRSPdR7qPdR7qPdR7qPdR7qPdR7qPdR7qPdR7qPdR7qPdR7qPdR7qPdR7qPb+AAAAAFTrIJTPenCYbuYCcIfwKfupHe41ExLJI2teWmpV5nm2azYSluaDKo2XL/+nz4IfCKMNwK/b3qo258f/czZP43khIUNicwL5h8YAPpdNgBm6X3hB9VQKxSCGfS6/DPvO9r6kl2W7CZA4u8Pp6Jx4xGDE5aPgCp47d86oRMy9klCdop5nZppnUzFzLHYA0yhDX9d8A8H8ezwn0hM7t7KyPPWRI56VgnUe2fVz5h05LqKppm8V41Emu0G3/Ef55niU4NZNStucREfmhtPravgSHDiZJfzPog6K5Bh9mDlEgjOzs1aObHlsBBpg2DA4DWMnurbdtiPHA3T7n8FuRy3Fzr9BLEjmLkqPgZY092cWYO4L0erGD27i6eDD+rwigpwPEtYlibxKla9wRtRpoPGE1BnEXiDB9MiYicknWBmJ71Er5GN0hp8nlOZBhfNCXRlxf8+MfXQAAAAAAAAAAAAb4e5Y9ZDA7XObk933uZhnZobI3ay8l1vz12cJ1ocf4lqyu8ulAxgHg/Pf9onCtQ2D5ZiLq7BMdRDV5aoLeun8gy/G5v7DslzgtusY5rnGERpoNYuBQETv6JEab3CJidMizW7ZlVuBKCSiASt96CcacxA/IwSK34rxui1R4AZZdbXIYbfiFI01Hbd3u58ZVs1DrSXQu4jMY7QQx3Hcma0COUWqRUqTzKTOkZ3FGVrVQCzU5KnNTcTXdUD7ItPt9TeYz3Xz1Ez6eCI0YXvJyfXmtfV0rp+OdyO8aHmgZV3xc94oXJyaficHdV+78TUrW1qhiB6ixYDUW7K5QhXGIMhA9TqpAS7z+48ti7FKdni1J24qUbjsTYWkkPe8ZXJEZSPBNikzYCGb9iT66sxNkijzsHDbDG83jm1oRWqndc99khG2nvp16dsZfNXvbccOM6W7i5IRp3+DPhEyqRwWqesnIgSPXTNoTJkN1LiObUa8JmN65YoGwGReuF4wFONTnUUMVTqKGKp1FDFU6ihiqdRQxVOooYqnUUMVTqKGKp1FDFU6ihiqdRQtQAAAABxpQh+JUuz6kyOZa7C2rWIkv6f3x5JPA7G5l0PIR3/cPAmZ9+reQHMPvAUv2s5NJ54PwW0wik/KA5qvWt/+nTIoaWLbozha4uatlceBs4V5Yvl5aazp9sXYBu3qGwejpxcE1QcwD0h5aSuEYLq3KoIOimxNJ77fTvbeSVDkSWweWprlT1dmCGQV7bQDrgpZAT6z3TQRb5Me/2aOxvyRKmL2F5ZI0rbUT2ZjBiFKjofeWL8yVyXTvdiySv78fgj7v9Kx/AmDtUUZaiOVnvkW1i3AIx0SUGP2EcVAW/+KRz8QeSyZ6p51968vw0hQN2G5OiOg7EkB1PDKuHhwX9zVlsjLnEV+b2BYjt5nhJ1fW/Jvz4rfzXuBT2fpoP8w4g4Nj4MDtvWW8nJlQgsBJsI4dkakiZBdvQtEKdf4HvyLDRsenjKtkp+1kLTk2DeHbNd2YYNZ6yCP+CTSAm25C3EDB7zxNRXcyXnidhBE1FaoPeeJqK7mS88TsIImorVB7zxNRXcyXnidhBE1FaoPeeJqK7mS88RWAAAAAfLBS/oZX1bRaxmZT4pfTObMWpUNuWi/Q2tXfvVGUB8NESGqEB2a3DZbDXC+mv4vGub/Yu+9fBbQNLofWlFnYD8gssyZjZw7YWPpbl8OMIZ1r+Jq5lc8GvNFDZlqicSN0shvxV62hKXXVkQjus/kQP9jPA3IYyK6mWUAvTtzgsvFwrmK0RBXZsn4CLeXl+1pD1cg8aUHtPta0B4g8n9s60Yx8ZbrF0Zd1yqwUru8T/1MNSqdJIJU5x3JdKDXyjJZrR8grA+4mc0xUxp1QM9OODSG/ZpMKJKjT2AReqZ8LzRl+JPgm725cgJYjYdrtYO7EUFieNXyNt9s2n8cggF1W3563JiblMEJeBioXk7/GuD5wIdNpiq9imO0jEXuhYgAJuK5vR9ld+iQJN/KlQkbSNGJxsDIaBu8HQLdezZXl49BhuogAAAAAAAAAAAPtdlrXeCkoeVmrJCdHLHCSJ2EuZShejYkvZHBw9phZ0itXtGiqD97DJtnj+xAMM/GiLuHMRWflVllv/Otj3/oi3+eidTpCDHsIGwMMxLD50z+4L/giucicrUdfZ/VuLdksT54s75jo64wGtfiuYy8LKg9KuQpvCwdCqq/pwq99eJD6cdJ0GFMTTlFTm4krbMHgGX8ZZVEWH98SDYaXnPlwAxVmU5XXt1OftTKVHMzrfJGlnb+aQdpliQWiKczHWYBxxO+i3NyEHIFG8wc0t2Pfq1Tb86G8d9j3Ol6oZei2UcoRMfOqIgL8FmoAW4Bl1ikqdW0bAMMjTLXQRMR28MTMUSeV/wk9Yhkqg4n/JLbNA3XcBd2JuKfuHEkLpgaurSh8alNTYp3eJgADoG8dP5YcXXJF35/JRqElDEpou9XDiez/swLj9acPIqQ6o3AxTapzVUIqZG28tccQT7l+5fuX7l+5fuX7l+5fuX7l+5fuX7l+5fuX7l+5fuX7l+5fuX7l+5fuX7l+5fuX7l+5fuX7l+5fuX7l+5fuX7l+5fuX7l+5fuX7l+5fuX7l+5fuX7l+5fuX7l+5fuX7l9/AAAAA/7nBm8PXYKUL+iIJzN1hRf9NsgoYrg4u2+FOoXoZdDxinXczzahht6PR4Ch4+g9MLHkVvPiM5Ie3ejLBZgf2ctaTyQI7Iye9jcrMJf/KwV6SSqIMUsWw8v9azH4yxel75mbWCXOY51vkOu3HMA4Hif2XdyK+kiobXqHozRq6xMRinb2/yZ5m/pzZktQxnk9fso/CmTWiWeqN8ZSMoag8clBmQOJnefO2pMGr787aSpaokmDtC6oyWhxDCQjeCccNpPAWwJqMFDdkPbX3nmMlUcg9Ec2T0L4GjRlaPQEXk6xA/dZyqGUpEDV7X7EbfgDcF+0hW/1hcK/qz6J621eW7uSpK4CEo3ES3X3+3M+FPo+x1sR7FB0MJl/YS6mS7XFnJsFlfiFxIRqSlnG/1hvRLriOmBa/75UEi8//5jkTSoCtNGwq4aHn2JQBkYWocmdIc3wEhzBNUda2YnYAAAAAAAAAAAABO4GXUmc26wpC3Qz2Lr/HdTbnZGo3Zn43FVysXNYvmtgErv1sTTJTwYmxPtGpyqhyWeSlUAklczKLTuZEV4zN/q0igeOW4E7e8w4WDGbUL7KeDzV6kGpn2C9G+vcAljeWT1eYS6wrQ7z9MPj3rWrrYg7phb4sFZ+OrmxWTu7ZiVoBKum+G5uZecgzG9YV8lqTH8m63GBw0rLoFFaXGq6YBavCxpfz/24950isUGdLEWHbcpjJaqzogcQqEZsTZug1lAiXhrkZZHhN0HdfMPfN6hCwzPUeR2zCZ5zch2T7RQhQjuC+5b7Ueff0gXwGctgV/BmR8s9Hw7D1yZYmfzU5PQIKp9d+gGFkx7qqHRg4nPICF3veE0oqYqKalPil54JaEC1iZQX8VxLmI9bZr7DnxKiKgS/NJHfMiIzSt3voP0lXtaZqzBbCXSrKYAuXVYiCy6OztFq8QKUDiKNaTna0ckB1MrJlrefGW1zRLImSQsjjGuZXORfKTJg0mcDfcUy2BL0EVmuh81XsqRtlHso9lHso9lHso9lHso9lHso9lHso9lHso9lHso9lHso9lHso9lHso9lHso9lHso9lHso9lHr/AAAAAtf8FHWycey5mZUj49HSsuY0IX/mu6rEVJzpZon70vMPS0X2cjSL6B0NVW5munW+t1ltLyyVy/CrIV3pN0vDecEz6zJlSxpGm0+ooQ+Yq28zL0RtlwkbuZye1S/k/Lc61WTAwtW0HLp5DZfHlPGVKkln0PWhgca0OLPZM1wEcY/fpK7FcIpHTjpvel9eHO1P54P6CdF8Dc0ZBsYSPRY1+lDZlNzFcakYv8vcp/cTOVXUuUtmi5objnuTLmdkqD/KLnEcw9Bv7qFVyEnTZp8/m4YfihiFHwdKkbPns07Kntdb8g5veKuo7n3MZik0vTtYCce/HmDMl3P+vRrC8+i+7Cs5Kcnqf6Monqg732SzfxsZrIMFmQwNu6lTLpA0xbqE4q7T2uAxFr0Ev71ILUH9zbUa9NKEw/wUmctwlrPFud6/+uWeII9l2kDl4fLtkg7rD42QLj/82rZMRGw1GDofdboN2bwOsFcm+g6VE8YwlzNWIAAAAAAAAAABP0HIrbT0D0+e9B+/0EM/X1TY4cnkAL8mbETMbkRKzGzK9oyoXWE2kDztgDYG/PzW99ll/1HRuaMg2qBLB2X0YBVX26py/SxMiPUm0k9xxrp1qb22XrKsFCFPpfXfayR+yn724WeEfVoYlo3/PYpYBaZ0cnvUPqH3RKtzbZuuqqra0jmuKHBaZpsFKTBsy8o2C8mP+bZlMp3Wj6kuHyXMjFd8mS7d6qneX4RvGrFtg4zAgPvRGALdz6I1SsdhG9GNMmlF6MBCO23NsyxGwYckAMm1+oM6aZv9vLqnNA3DbaqfHNR9ah/KGhb1282j+3MNGREVRFq3n2Y1z3kqPUiPNiUpIV0TY2oifeb7zqHSM2lVDIkWTYq1Bw9xv3CLi2C2432SGugKJ/XLvESca8BlcUvwaaHT/BNLgJiO9pFevNwBYxI8LWO2w8bxRplrALiwWjS/qiydh7dS/gAAAAAAAAAENWzVzKDxulFjCL1GP9Ew+kOZ5o1nQI3G6/flWLqCfs1gFrMxOHaGkPkBSBSVeI/PiCef/K14+7jfVV6uip2poGw+5Xf+4F8a6/EJwJvL/ynSUoc4cU/vT10EQLDv0edEEufwiX2uN4IRALvEKcicK5T3ae2PJ5Y3Xsft8ky2L2egtEBPsePW43QlZg523UfTLpjf/3Wkvtfv2CKpznHw1Y857ststMUliy9mahGyHcoSOwRXrIEGLByqb78I67bJjul0szJ9zGOeMB1cXeiHfAVH4+dSLISZcICSnJY32Rnq0ohYRQ4nGk5l1EklYg+nJ+UuNv8lqUkNsBdk2PNB9Mi61Xw1A8dpDNXPrR5J4cxu23AcrORkyaoLdNHrwvFjU0elaCP+7nvm+fAd9ti9cXHj1lrLunq7/9Belqxgo3TtCibnI+2j2hX0qjxXOqF58rt+G3iuPSQAAAAAAAAAOgMZUKjz0Cc2J9ZUbVH40bUxD+dQrS/5ruMvlpNrjeip+XuTgJzBycxIkcOgUqZNUwa7tNT6DxhUnLXwPPGVv1/4+tWIWEIpS7FGju9KUtJ7j0gzTGYC7VdVGAvZqZddBF9A0wwdF7WjHf3aKo6qDwfuBjSGq6YYzvcpebP47DIICS3omk2XNOEcP1k2NPy6HRXo9bbz4fQE0Db84w8w1DGB8Oq9SeawnJq4BnPeAqnnscFsgfK7EaVKSkSSA8vdRBYVXIMbBC5ntmtD4DR1/P0qmrK9bAjF8H1V0IqrMOQ1VdatMh9BWKVjgAWGV6LILqjZEd4nJWsI81jNs6o+xZ+1I9OT8nsFVnvMhmZhi3DOFonrWwfjwAEW0xOAIlsXCsCi6GtnvTYChg3BWfBY3bSWvZktfHR5h5nXdzLzlVFh9EK+jQ5zCNLSv3NhHuFQE0bEMo+0ntqpF0PVMGNFSjwAAAAAAAAAGBQEJ/luKZD06OgPB/iR+mqAw6arcLx/A8FQ+2JqiDFaPvafYzEkfDmCDJ+bjNe3TdMEc4UDoLb8ripXEBTWGibTWMvgwKqWNhgv/2bTfXjsYRfXH6fvfG+fgpvsJpqn5DPlyRUlW1+mB5fXVyGBR10ngeGoXMWiWhGyCS7DBs+0hn+NzGATw3eC4dvEPONAy3mt8PVnOuGMUgHhae+43P05uhuDsMmPxbBiaEpdr1AiWzd+ysWtnKBB5rgMaFgvZ49RYeHaufR35ng+1zNTQEFn1aDs5I0M9w2h2ohAaVc+3KQvCgiE/ZPTZsEs0qokfyK5U3vUmONW1UCdh8D/xNl0Zn/DymFG2ifI8OsQTX3ztiPOpzIG5tvTFkB+9bqjmfJiZPIUh6DPVW8kEVESEK1tIidQsURwKLKhPTXf7jBfg6IeA7RqXILyZ5bmYAGpjS3uTPO7E/CvEe+4Qe2nGoV6fpCjQaLrdIUaDRdbpCjQaLrdIUaDRdbpCjQaLrdIUaDRdbpCjQaLrdIUaDRdbpCjQaLrdIUaDRdbpCjQaLrdIUaDRdbpCjQaLrdIUaDRdbpCjQaLrdIUaDRdbpCjQaLrdIUaDRdbpCjQaLrdIUaDRdbpCjQaLrb4AAAAYK11yxnmPm9X6OeBAp/ZQQobQ4q3xcDgPEYJpRT1zZi6AjxXsk5upDyeCauGXnFnoySm64yDMkDfvWlqVd7+vhrjmmT2mQS1gxUKHQHu7fiCE3Op1iIhnN8+3dKpkOiXLffU4Wrv44qt+VxUriAo73j6UFfhgFqUMjb5zIeBwWfxdsW9z09WcSe+tRkBu6Tt/XRl1L4M6N2fxgKKFvxflTvMwqqOt6t8GXfDqpOkQF/Mmt3gDc6Tp/wI9W+XFye0U70S813trxkVB2JGg9/uhzRlySyIxH8rl1K6HnfO/FADIfVUfxNUwADHbuudU6EsawN2m2DRnmV4gpeZ/3nu9Fw46cFfc6eAiff75QsTQ52ATgkWEZRaH3o04s02QOTOwWQQTpcgK+ogmrMge/ZM7Mje24qTbgbEYr2eH6n3yEQloNpgelqTJSQmKyaAqh/XghMQCLEZHD4WGLgH2Ql8A4E5RjbTX9W9LpVOUD6dVTl0qnKB9Oqpy6VTlA+nVU5dKpygfTqqculU5QPp1VOXSqcoH06qnLpVOT1AAAAGOKdtWeAqWso4CsOowJOuoG9b0KqBk9isHnpjOSGcNEIMX1fCexsI41ZGMRweYdKOXKTbVXZECBe2mf8J0gJqXRTtM3pNU9jmNuLPFxaopGkgRTE16QzaF0ZIWYiAtgLbv6tQjZSqD1cW+qLmL7bYyGgb34Cn34C3azqIh8ln656MggJN+HV11GDXZSK9HBaFugqqWigRW1QvTUPnpDg/jP0KVo+cN8C6nzjIMe8ljoBxlXHeCHGNUGeDVd5nZv958CqVI1IPuEfscNMmGDDdH52Y60kCCywjkOrVArvAHk6rBICDbo6AjKuGppEovS0AQWyk56utjM2xXDESDYV8qjAA0ZkYVQKF8KGT0KBKfIN7Jj/c6KaUFl02AfRaHd0f2ekT4bwYj/+PckQ+dWgPVmxNuv0d10Sx5MPdgq6HmQwuQJ4Z5Ex/ARDsWkCim7hCyCK7ko2SwzNoLa6awl9bSgL9NYS+tpQF9bTABRy/TWEv/L62mACwl9bTABYS+tpgAsJfW0wAWEvraYALCX1tMAFhL62mACwl9bTABYS+tpgAsJfW0wAWEvraYALCX1tMAFhL62mACwl9bTABYS+tpgAsJfW0wAWEvraYALCX1tMAFhL62mACwl9bS+gAAAAuVEfv5bblFaL9Pyl2Aaf4QqsBl1+pxzLRfKu7JKPIbeu70EoxXTeyYKd/8m+RKcjT8gkf5cUxpM+nOfaFCEvkgEGK9hqyMNE2msWCWUve9wnnvPJqx0iYFvxy33a7I4fiYmHGc7iJJ0DX8QfzVNEUnQmFw+MTJB9GToEHQvClOlskU3RAGN/C0f2JcfaQwwXsCc9xQJe35LanbU1wj1PI2dNjKsjkQohDS8NSIeIRskbyDhAzz0C80NfVFpeXJ0oZsyJYrHEtbKpQM6Tm7nZH+s4xIcBFc8c0nrqx3DBSRXc6dNQtvbEb5PpGSsAVGGjK7gCnZbC7iFQ78tFbbXO5SVVMMworxxCiAtGChR6fHj2+JsWHp/H/mEh18p0XHLl1Ow96er0KF/92UCx7zCEh/tuYxztdHP95R2nFhPTSXdbM0B8BeL+kVTKLEHsYxDJ9k81y7Yd4U5iEcbJVqLkK78+AAAAAAAAAAAABRpvDKXDUhZPmHWAMqugbqjMpC4yd55moqF9veiQvKNbeywz8uV4m3fDXDZoRoVp89MeQ60c/ZNerco68UwdcFIvDHTUh2aERjgcasiRh1ICtldt69RJaLN0fLNgW3EzGulN3iMKltTUsza6kO0aI4EezN0xqWuv10yiEyW4IgLFgHEKzZkhHXu659WpcCkQnIUrsUEGV3iay9cSRcXNZxudDfDuuCGmKSxUFbdE90aBKhpIYeLSiCnvHxoRM2PWem069bsf98/sI2MiAdshtPsdR5XdZXMjmppnlp0dU47pmW8l2EXrv0CBih6m/uuoDub1mCE14SGkQOdm0QtFIsBYqs/xNK73ZEVmNJAv7kgXYYrwXJZKLSzdoUWh/2owr55hv6xAvvQAOfWIhz+IvVfREjmEtOiTfNI4f1FxYO/4jSWD2LDONHjcE/t3b327s5lKbL89u0BNgAAAAAAAAAAFBKAMQ7oA6kKxhW4uaEurjMvDL0n8mKkVP960tWC3Yn+DvkIaydrttYdw2xQo9afooytnQ8Ag4zAE5ql68kHNnxZp8vDwY5tAraBoLPvFKOmXS3H/8ScC1qT/gmDVVae2rkYvmjAv18/xtGJiKkEF1cbXSGSnrgiqydTqaepJDsCFzl6XeEC8awMFX3m9QiJWYCU51+NCMsnP7071HaVNQXKWu1FpSgi5omPAkOeDOiw1gIiUvR6k7oDMWe6qCZyj8wZsjJkKXxO3yhd0Db/fE/GMZ0AKZMZndEXtKF+BkCQh3d1vM+yoc2FKT9WOholO0oyTWDfLRxo6J4Bys3mqW2sbQxJlA8IrAfY90gpaWG9o+8hrNIx6nkXpEw6YtQN3NuGIX3yYoQy1WSxiHXefmVrnNJFIncCT1wgMI/DwppyqV6FXzh5EZTfTkyxI//TTGVvhgAAAAAAAAAACjTfWMl+dS+Jpf2FZ/7a+B4M6VvZiztTeg/K4boN3pdojv/OIxo3utBl6gUOKpY9aXRg6p0ufjFTFSBig0Taaxk8rgMkJJrKxCn4CY72XfzmGFBhwdPKDusIZqRG7TtB65vZTwaiy2c3QOrHLyhGaCn+QHfjVCvnFn+NzF/XvU0Ku6BwU1nkXigY0BIIjGU6MhJM7cjeOwHe5J35NW+5Z7E6XHvDBoCqF7Wg60plf1/TPbNeAaDVscpxVxVIUiMx1uSLsjvLLHYAnPFdoHOwbpkmezyOf70DGk1ml1edcyAuIrcIJER80eq0MwjwPa22AQS+zEi/vixoKqnCflrD4A55iuNiDpmV1Xfc1TIKqG6fZCI2RYVbfgNqPmOUOGNKCcuWvGFjapguk+kV6O7G0NpwWByN9gMwmCCMO/rfDG3v3spphcyThb1COnswwgqqCRXfQfIeMxYUf+Rzaj3ke8j3ke8j3ke8j3ke8j3ke8j3ke8j3ke8j3ke8j3ke8j3ke8j3ke8j3ke8j3ke8j3ke8j3ke8j3ke8j3ke8j3ke8j3ke8j3kX4AAAe/KuqGCqbqIxmskzVLRg82rLtftvBvNAS/D9ZKwAWfCeff/iJ/V5P+8hs1Y4juaWVJ2nwuX0HPMXrkSqaovDN7YBbYeVEYh3AL/P01sCyjCzSXWzdnJgQ3lFIYpdfZwRDec2B3BuP6OK4+TFKUkondXiQVcQA2uvd6t9MkxYE+d0PzSer+E7/4/XuRCgUXtZ9wASPjwetgTm+3x9vjOB8EJsAbVG6ufhsUivrBX2ANg/OeLdibH1UnMhrIxE04YnP8wtbyVzI6+BTLVlrnJOv2X5QdAahPaEnZ45s2wXLEkdTxbHecD3EmklzZQYmrr7kj3x0dhs1eFSR5G0oPcHu/OpB5+YvIWuQUNGrJzwDQfUskCjgapVuXM0d+tNOKfgG0VrptI3F5qpGTg6JvMZIfNyUpcKO44i76IdzV68gASVZi6KnvRnF44r95kay6oclYYsryQSoGAAAAAAAAAAMqrk/u9Qb/KpV+SQPvgkoAVntUl0JdXGZeGXnFoFIxlSX+cGqW4kHRb/B3zeEGPxWJlIsB78LxAkr4S4AyB0dW2H/qdSzGWgc9PeVghqyD4ps70xrePvYyDAvvmI2Uqg9XFvqi5gjgmB8D6vyJtMhVQ9FVSyfK7vfP9Fq4ar5RG9GmR8Suq93Z6hYtYZmrszVb8G4ip37FiWzRaXjXmB5L4+LUWsva37l16IRMiE/tA2wsLTkh7eFxNJQ8RX8WSJW/wYCp7Q5NP4BHJR3a/oDHMOBYqK8Dob31/XrYEr7XJIgGSf7ut3Azf5CTLM3VDAwtB6z5IQ95UfKM3cEzZzsOGCeUdTBIr8th/M1topxw4fe7XaXYWQdr9l09H++Zi8gl69DhFFu/8aRJMZ2ehlg78W5qfO+VJcj7taTaCk01zemARMpMvXgm693qwhpMyexiifsqnVg1zAAAAAAAAABycKH+tFlGna6UUW6/3TdE+rURuAyVtYt5frfJHbIKgGrYdw3pq5XvZX6KvmyPiKxr7wfQ/Kd0YsIesFVTRPUly5o4qvV0SCoa6fZpEPv6wowky/6X9SsDzWASfnzd4l03RpO48S0yfh7dFofRKsQddKggrLRs3ztHMDRzRnQDBZAMlOdPylhg/8dcXXWkQQvTkmuEep5G8dgO+LY+9xOMoEyZglHt5Zeq1VpCrkgeaQaUP6SdfsQtTZ6jW1TYPK3RfaaCkKq3uMjIuzKjQJkpg84C1ZHhpKotDvgk34+TlLyEE9XAmui8EnxS6yIXBl6bIdy5gRxXnlA7Z8YapvGUzHkwz31bExAAPCL70SjkvoYg1yBYIYg4wo9RcmhPKutVIi6CNtR8E6ZZWN+SJNHJTKpJQ6LHfBqp7KGaxjQQ4j7/akhwbrUrfetz17pLpTt////////////////////////////////////////////////////////////////////////////////////////////////9+AAAwDsPceHI/ieb1fo58E6uQyPxg3E73on63LuYOowBvwTP4fOdmA1foqk3q3wDV+E4ftBqdx+2RFeOuwnJaJrPi+XDi0mnK1PQ9X+7dFTji8M1IT6pQgPZWRfELdJQ+USQP/jzCWKOXywzXyQxzU1eeUoclfKtXIyxhgc8itS8rgyoxk7U779huqlYmdPvpuERJDWiVYyCQgW3wIylQAOErAJxmM6533kd+LxrvvchYKx3h+391p1OMROCrkDIyjZ3gtuJA3N30ffL1Y3Akly95q5h3t7TSY1peMkdK1riUpYO3KqaiJ+uumf8beFcwFROPrwHGmUvRDmc7yRVcY/xu6TB2+DC8k53cfbXDIHgc1adVRxzMdCSdOA3dkEhU7xiaDWmJQmE67G88KmZGNXddLV/n8OeCV6Lel4LtDJaq4wBGTibemQbN3Mu1zyChdIiJGbg4KWqJgtUTBaomC1RMFqiYLVEwWqJgtUTBaomC1RMFqiYLVEwWqJgtUTBaomC1RMFqiYLVEwWqJgtUTBaomC1RMFqiYLVEwWqJgtUTBaomC1RMFqiYLVEwWqJgtUTBaomC1RMFqiYLVEwWqJgtUTBaomC1RMFqiYKEAAAxxUPvGmfPjpq3f1TmEi/PTHkOytWq3hfODVLcSDot9n5z7le9QQbfHeg2zr5B6EKNOP+4vhD1EY3aMNo/15BdQq2YNdaQxl0punBTvxGylUbuXi8PSAVYyVpBw0PH45NRKO/1wwZ8tMJtiSYAF1zB6GAFE8GSrEIrUa3vdBJyvfzzZmGilwC9P4q+CrN9KOXCGsWOQPV35g3t15gZI9cbCsUvkgQWhf5uJCQyouyZEJoYaNXpEepW59N+IsI9q/h7I/sYXs966Xf09ZqxrYt10HAzgR7DM03stHR8syEonD0p++smkMKqwZBOGh9RQBJTXEuGeQ/lbShSAoO4rirjDjNtGVRbR/dUTrlX3+qyJ57Nuz4fq+jBuLuPiWrAVyOFmlNt1ZCu7taXu584HFiQDH85NwBpKwBs+jzVAkHX4Vr+kp4Lq4EScgqdr0q9qKB6fUUD0+oxo3bgrKRxnb6fUY0btwVlI4zt9PqMaN24KykcZ2+n1GNG7cFZSOM7fT6jGjduCspHGdvp9RjRu3BWUjjO30+oxo3bgrKRxnb6fUY0btwVlI4zt9PqMaN24KykcZ2+n1CAAAuOk/xQb1d/RuaPyHuk94U/3HeKm2dMteC1Y7L3tFYU9CMyPt0GpvlBkTRdVKRit895e6U4Pfz/LNU9C0WihPD+zAGlQCWDssInXJ2d3iJJnMOvBXInxjrXqkbqrphZ2nYYcAUzU00W5+/khk5h6jFY3Hl2+9j2+jz0TCB7vuY/yuNGWIF49Xl4+skSt/lUgl29nFQbkvBe5m082ZJcGs0Ad8Wx97ic6eYXlB7b0i4acvUkCjzdAtbF7fFzEU/ikKk4uzJ3wHEj+qTw0L7+0VshXJ3zEPJm1fu40e+2b0jw0i5qfGs9ggHxQWRc0dvbO/f66B9XPb/38LPtaqLepUQhJvv2GhK8NoG2BMnfVgaLVcwKJKP33wzX5mzmlTgds4hSKwTX7zGE/X0bd6bgFzRupHVzD+IYEZivUYI8oD1Qg4aYqSXzEoD6HgSxGgWVeY+jTwUQQIyCHa4X7MZGQRBbpimMjIIgt0xTGRkEQW6YpjIyCILdMUxkZBEFumKYyMgiC3TFMZGQRBbpimMjIIgt0xTGRkEQW6YpjIyCILdMUxkZBEFumKYyMgiC3TFMZGQRBbpimMjIIgt0xPgAAFWV8Mucsu3Qo0D//abB9cfD8cVb4uBwNdMStT/mu6RvfxB7oK+/2Owz7jfUxyh+QDW1598KE3z30vhszIrc7JaaMxaD9F/035EvP3JtWAIBGlhqYpyiEOmwpVIhsH4g2nSEFiTLTUmye+bwvD8dPy3boxU2MhqcozGytBqkq0gXTK0kTCpAD2GYzN32/twIpjcqv9heMUKCtuPZs6tv6d1TxHkuav9sTGrnerTOy4H1HdnyylCiINEebQYfJSMPyQ/kefLZJKXdFoLAUr05EWtimvqkHGNfk+E228ioEPBLuU/BvA4wDPHx5wfeGr7xxmRVZCcih2ujSml6Pdnqd5BMuKbBKTTZfrKmvz4ZJGg2/ina2AatUFnyfmDzJMEw4UjNLbu4b+7QBNomgEx48oUvlq5wBk+jPdViaAsg4eLFEW/CGcN130GOgF8NvnFzXT3cQAAAAAAAAAAElY0JpUvcH11NOuDxVUK0v+qBTgdyu/0AvsJ/g759qUChE0i+yo8dQbTdZwdX7ShRnoY0Oi9VPq4oAdtzRFNm2wmzalZxPX1jzIPQS1j8uVw8TfUMsNdur3EpxQ+QoMtaKbYZfKs+k/44DMrpDNI8EOPn77f9k2dmwem6ORiEbOGzJ2Epy71qYkr4sc1BokZqqMxrNlzmTPzwEU2vnm48FzRrGEeUB630XDa6KprktHxTH94AVnXxr502w+UeS5q0Uhb0ealyYgs9lAIrO5vIYIv19GqXmPWS+wRqfMTglkEDTbECuEhy2ErNwln8xNuKAleQE1lMOIn/tGoeiE/0/RfxLBj+1/q2ul4C0cQjeF4Bk2dNSDAZvsLAg1zdvgt9T3tcQkE7trWJ+WY12MN4VL8CHoSfOdEnMqd35SyuxgTTURIEsv8JOkB6zjNCumMQAAAAAAAAAAMCgBeQDyhI/p36Ih5JpVJVLbiO80gc9DCoIdVlaUe2x2JUPfIPZpT2XZw0qk0nrqAHbzA54QlBLE/vowBdGsPdkfaAi2k946CfrrnWi/eobbH/wwLh1/tHWA06DroxJMAAJaOVkmRon2TYeBqTeKf6f2yGQlTH3a0JUSq/dExsPhzKTo6nHZU9EKQr56GqRovpsZs9WmsRBEZgc5S/CRHB6+81ZcKj+qhc3Nst0oE1Bkw70x4Qj/8Kl8tOFCeYZP7/E63SKLXFADVE4jVL5x4SVMGVxmArn59XY0D4F0qUcASiwzvYKNZVtVqac0M6dC6vHM7vSzT/Q65pcWlz5mWBfQjDNXOPiM8PEgWudebSLdKbld5uKS/CE5epejaXYzBkZuNHlZ6LNfx0tO5nYPA2ItOBL1FQjVs4FXXKyN8xUJ5ojHTTrj42/8QIKkPtgAAAAAAAAAct3ViKF5PqmMVwZFsz9iC1rpqJyZbCDTI0b2iVXpuGXkfqVhgvAt29zA36KOpaW/P+733ClkhGeJ2WnosDirpHlWlgc6BPWmqgQeML5uP4DWob1Hrl0DsAMBRFJbL8jMVpuM+MyYC54ha/HMPMnurJUXJLiOSmho85NAAx9f28QjAewe+zR7lIfz1A1Q16L4l3W5U5Gkyac0EU/d8d5BEqE1L5ezj8MceBXePnVa4k5QDddRYwjhJH9purPLAsVXlxr06DZ2Mln0t2JT4+Oqeuav2JlBL/iLfXyNVJ34LADXLYrUuivkeFG9LSim4GYURTUlm4Hb6ITT5kqkOxHoJxLByLAQpYHHzjxRkoZrt5huLWDmhI+8FarKWF03oJBz8EJAw5FWMtYuOnmvzFU/9DZk+INfg3tZNANORo3Tk+7op5JDWJmjT/p3qhKC49BNi0ai4f/0fOSpVr9+/fv379+/fv379+/fv379+/fv379+/fv379+/fv379+/fv379+/fv379+/fv379+/fv379+/fv379+/fv379+/fv379+/fv379+/fv379++/gAHbIVCpbrciTO1mnuJhJUGEzmKy8ZohWEZld88rLkI2QYes7u2BJ+j0yWY5Wp2HS8T8ZWMrTdouM/7iTHKuF0xd7R7cw2St6Acsr446vCLL9qpKBTlLPPaMnere5pBbC4CymAxf8+BYvtXBdNTtD3/yGxr3ttRraQejfqaIPwCOiIFFCZAk1LZZIPIgX8uAiz24irjY9uJ8Fs7c2Bcn+tNHEtw9uzWduvbvhslT8Wy+sMaYwHQrz3ATUiOsvpUFXSROsGvycmlxIaXi/nUxKXWPM9y9enEiXVZIeq0v+FX16n17kyKGiefm22ETEzbTh8ojSEFrs/KlAa9qSjXiVg5IN5EaTD3S4yNQ+pqaKgTx63czZtdb+uH5ndaPjI4K/V3PjjAft/K5sihCHxglzoTqqnrQBJETun7nppjYGoo00aIlna9xdk4pKUXoUGM2h13/ISi41GncqY/6C/QF/VUOuP+rbheHIAAAAAAAAAAAAAAE6PvfOrSZOW3T3NrtVmfdDYEj0JjaZRKZ7t5exEyLkR+FZWhLYOn/A7rPr4+/bKPtsx9gafEWZwVEm23O5fgw43toLRkxrX1vumDEupQPx7/2EVdto29bwVKky46rEpDMWurhxo4NTYhw6ggjKZn4+ODVM4ErSq9K4Ddc28RBhUysaajQIM2cGGUPmSwWb2TSUsdrZ9uIbK6SsBWgnm56Io6Np9P0xwhTSD58rR8s5gCztX1bO1Q1Vn2/x9TI4F4c4RuBZVIm6FS1jnhJQvL1KgF9J7guI5q79Q9g+y5K0aj4MSqsEa0CD+JkmVY4lq3COnXNOsPS3PVvoNxrYUwSzM8DkG3qXsiF7GL37twuHlLNqYYMN13L75uw6dQP+L1+L2Kv3+A9X69WoYhJmU4ekjo40PRdVgyuS5/O7g+3e0sLOuoGcrq00PqQktUkJVYdacEgP6aiV/wqR+saO9gkCCjMYEvEm/ETaGjXQ9zRroe5o10Pc0a6HuaNdD3NGuh7mjXQ9zRroe5o10Pc0a6HuaNdD3NGuh7mjXQ9zRroe5o10Pc0a6HuaNdD3NGuh7mjXQ9ybABkF4EBfD2mY27u7jk1UaplX6idJ7ZfV26NQv57KTTF38W2oLk8OQmJjVvRgcmG5sch0YcPD1yTg92qyr4HpEh9Vj92RpkHv0wacmI+cMcCixo05240uMod3qotcc7aPpumtz8lab7kcVnkMrzYYVDevrfwCM8hd5DBKmBRKFhLrgjfHo5B6ysljjL1dMSkY5Ntzms8JaimrJ7WT14I2MYup4fhuhKEd1/i7MpHVRJAwWCq7olAUSVvadbkhiYzkqRhOYdHp0Xnt7YXFupJdqNIiYQSZAGCmOVey1w+uzTKshk3cF3zRZswJgoFzYAYvTglCAxuzHv8UHQKFemqw/s14PfgI7rkKJHDTGTfhBsW9k3xDNAAAAAAAAAAAAAApH5Z9W6In6bmcy59sTYWBQVaojdsj7e3WK5CVm81JFplPLSb6OClnbV06IKkkSdJNriLuuWSxBMe0z9Bp+pOaOuRs9OPkHUH/gBEUuf7Dz7YL16TuROSeT9LQnqHUAoscbS0dMd3Gnu4P9P2I9Zicn+gAxTK0JLW1gAkVf6tj4vLVMwyzbnaDzFwkzAZ76ks9FXqSfd4DV6V6LK6eH9z80LF8pMUtq4YTvEqxOtMkcTs8qf2C4K+RXP0/4fd4pi2jPg7BsFuoTs72XPvvosY5cv2MJS6oxDk+4iJiFZ/qt1ksyTSqyXFmfvkgpLeYJXtwW2yRaAQrq1XRP/7PZPIZoNtUeiB6lJZriC2eCS2v65awXqXgGa27kor+zoM1v5tSjwr72eDk/P0AffYyO+xkd9jI77GR32MjvsZHfYyO+xkd9jI77GR32MjvsZHfYyO+xkd9jI77GR32MjvsZHfYyO+xkd9jI77GR32MjvsSQAJ/s3CGSkLgPXcN6Fz9E7AGm9+JBpTP9R3n866Y8Q4/9M/+2uL62zJCUfJm3NKq+ulVQa9OBIomlHSN+ZAZnRyQng2LGkHFZfeFhW1LAsOzYZUP0kEPkvjY0607cTpctbj7vv2ZNmCz/IlEFbaWa3Gsu3rdGd97fN8XtmykMZpcob0/o4pyamqBRSZZ6d6E1R7QT2PbvyCRyoY0SjmTN5N3+1vA8jfyVg/XYQJ/M0rL2hLVYhkdJXwBCW8fjd1vBaFPFTk+qdj2hSubOgVAaO3WSw+NPJwhZvit+CWALVtrCEHqLfP6YdHAkwz+EjlQ/j+l1aoJzP93RLnFNrloqWrXtsc8Bu+YFKFJQ79dnb9IDVSPW7oJAAAAAAAAAAAAAADcmgPm2WNquxbTP02zUwvf5/SIGewj7ZYRf+vpuDiVO7HpxJ+6Wa9foeRLFCF2+JNLJCzzzcfvrLgLQLRzfvudlqAKQplHNCec0VGmyZyRzhiqxiUq5Ekuo1/d2RYESs6pEJKDk+VfmfO8ivBKTgHefntnbjS4lUPEqJTyS08MONIuTcj7Rvz+XEHcHMS5GK8vK9PWilXP7SjhGZUbYpGNxsPFT3dh73nPLB7Ot5c5TURQophCCEhhzIH7TvuU5VRdbDtYyyANeEBOcldt/x8TeY+hMzCY9lkCWBMSYfCMg+BJG7U1HJZ+MvsxCKmgdDeK26O9k7DG4rC/2n7iLO1tjIpuW+EqlOlIWeuhS/g86h2wuTE+8gUBw8XzRHc+AAAAAAAAAA2gVV7WL3UcJg7uczUtv3KoWQKHvpnP/c5PfRx0yhIEpNykBNh2ZlofczX0Yn++3BSD2LkcUXkYNzkuanpnh9t3XKmCV1oSqtaRJPALmP5nzoXY7X9gUF/jEDyGPgAamXZmF1OCltaMdaSTVtuxdrB95NXpDruz4SZYXD3YDaASrjyIGha0wU2wOl95tVmspc0jtuJwM+08D8pXww4gcNTZEHqafkeKlwuH7rc8nzF46PYG2uQcPCxxBp3S1iebgtAy4vLYihqyO7rd6/WZYXVz6sZjP2Q9peqcSNi2EPix1Smp08hxj93b6T/X7eAYVVe6xSUlscG+mrJ/f7xoAI+MyRA8tYdDDgqvRXd/qdWNcSkAAAAAAAAAAIAc6Y6zwgnhbh/WtEn2JSOqUCYRjKQBYf7TLb1gH6d9MdZnHywKLuzJN2jO0RYehwKtMkkAtivmfhZdGOWVlhLUxVBRsmcK6PuSLv5fVRyQ81sNPa/0vPw/udjQoHqu6GSByV54oMSl333NmCYl9bySALTfHPi10V8x0Dsprr7OzlOQl77xjm1JvkTZ2WlE1xmpej7RpZ39Do1VFm8jsnkXzPZNMg/N5m4ivEBTZLEBfTHkYTaetUmVS17Yatg1ZnKmkDCX8BaxHcO/AWTEyjKvDxIrIrQ5Oqq/syUO/MIYxhxAsfw+I/t5k0OLkw2MUNaijBCHUnItq7DEhzlNZXPVSqc9MAQNULXPgzQE59slWoo1/LxYvNqo24Uv+ti/JTZJoPU26AwZAoWyj2Ueyj2Ueyj2Ueyj2Ueyj2Ueyj2Ueyj2Ueyj2Ueyj2Ueyj2Ueyj2Ueyj2Ueyj2Ueyj2Ueyj2Ueyj2Ueyj2Ueyj2Ueyj2Ueyj2Ueyj2Ueyj2Ueyj2Ueyj2Ueyj2Ueyj2Ueyj2Uev8Aj//xr0ldIfaQcbRTxAKIX0zWclFppxMtGMHtbpNEbATI+qtqCKzqQPIBS90rIPCFA9ulbysAy0Ou6VbJczp06CP2GT/JVzl2va/z+A/iUe4rHQbwGPmbkCBGzE6azAvImWrmYhj74BhbYKF2O4WHj3Lda5l2Zi+cc18ylupXCOiq0f+zkcwYnRgv0AqkWlZ6Tgwf3ElqDhhFW396H2ccPzEr2G7/2ZCx55v/owWU/xoSN9+Ogfzt75vVv1wSfz57+QGQO/4xJDRxZZcC8HxmYGGunkQB4A3S/cxwrmoIRqXV5a49mcvsHwBuwfB+Cdm0wdlFXKIH4cGUSchLD7u45FysHgCkVQU/szQL7sd2/8yIR8Tli0m+CK8KhTaDpq1I1mxAkIEv///////////////////////////////////////////////////////////////////////////////////////////////////////////////////////////////9+Andwq9L9LsrpU+HrCITtNXRKZvCBVeDXWMNGLsra9txP8VC7c0YCV5JXJ5C+Yt6djUG34T0upDMIif9/J0mlKA5wdIvKi2zmI4Z94v+E/kKWTY48pt5Jr6bffxox1DqQcGWJ+sM8rrHsqpoQMXsuk5LWspRd2aHo/P7m/K56Pvf/JvpFYiTelv8BzDS3HY0+3Qnajva235wj6hvbfe7AlWW/xIm8K04BsLjfgsiBo4L/+jSf68Uc9oEZYdzOfiu3zezMxDk4dEPvz+QMiu8A3bFv9f8/nPqE5PcnlWnPO3ijandPwar2xTmJ+RdfqSIfJaU5e5dxqt5VkTmEu86LbjJ61nginWueiZs3F8zsBGGVfQAAAAAAAAAAAAAABMyd01/0D2PZgytXdJcYQe906qiHeFjNhZHNMBwvdzVLDP+Ebe8/jqqXxetND3eKEbXvHHos30ATjoB/3lUNG6znMYgkc4g3dc/Kma2696uRp354ZfbAGraeVttWzkMfhIrzen2HnaPwSj465QH4KQmJWc0lK0bwWqCXPoQLXcnnQLqs2bcZ5qO5v9tX7teLr+hvrbaDqjDgcUpiz7MIhmaugakU98OZ1aezfnaK0phTTUTuaJ7CUCCiAb1g6BuoiKJifwM0rvd2qeRa5wUQpEbAfZIjYq0lfobjsBYTYBM+UhlrEwlbVMZpz4ZxumJpxCsYkfUt0Hi8cAomVCn7eHiiY1sAB/+fRuSNzSLhtVslVDS4UzJq++46fqObyPeR7yPeR7yPeR7yPeR7yPeR7yPeR7yPeR7yPeR7yPeR7yPeR7yPeR7yPeR7yPeR7yPeR7yPeR7yPeR7yPeR7yPeR7yPeR7yPeR7yPeR7yPeR7yPeR7yPeR7yPeR7yPeR7yPeR7yPeR7yPeRfgTGBvoqx5ijkqsQmRkRkXCq0AF/a4uRAwh958Z+1KZZCpndyM0P6nxFwWwGzlHIv5QXeOqX8VuE8dy63hAyFQLJ6P+O4TNQ5KNvdXlgOn5Tu6eebIIQOPmDXqYKqgVDUykLTr9b6yMESz1P9UJVSERUv2UAVrozTshsf2ccFr2YnMIROWgWTTFcgjsgpSxljpJJWeOQVTcM0P23J4IMiE97fHBoI3FDpVsLZhvs2Snz0kRY8CnsNXl0S8UGgVe0xs7yQGTyAdpqLadvLfgEVilgxs9VwuPNzM++5tb2WEDVnQ2a9D0UEb2FqDbS7WhlwFe/NpMk1BXVwqo83k53qwaSbKcKDATNKYv44XP3P0ta0M7N+fYEdS6ELUCliMXLRr5BlsqGhHLALvQgoAAAAAAAAAQPkO4Zb2Ti0/ANnG8MY1NV79Zo3F+++73bfT7+SIAX2AzARd92XYLd3/JuYWgToAc1P8hahQ5qYunyHYBvLD/HsDJP2MxLSEOYe+kvjqf6eyVc8LkwnQVvJXnJZkv2q3b1fzmoJSYC/yPqHUEJpnemcajDXaT+S/dfzO9cjFLKrWP/2idVZ4R3OQDt8R+p95i7oqESX3UDzzs41U5gJ8fth4tALSFsV5Myb1gUdw9eJisEhIekOblkDwIascgAJvozuAWGNTg8Km4TxbLemHKFgwt/SzJgzOIuJ5115jfaS+ftKMl8udWACvhJP+lToIzO5SZh8P/r7I9hlZr+RDo25DD5+b0OXqDVAH7sOVZMr356EwRyf+fAAAAAAAAAAO5cPZyZ81A/SBQt9ID7lZR2ZNgY6829ysokAHFg8x3pulmU2ThKY/0vqWIZDIHpL4lWjosVuu9lFGVcNet/hr4GIigSL+rIneiewn4WSU75QPp7mWCyRoRHkuj1up3dynyqbhBCHw7kWqDq4rJnczoIXrkSa50y+fseIiULgmKXyldRbPf87VRCM4MxyAaH7MPcvaPwF7MD8pp4WHbGLUWUdDn0bH64Ng03PUx6V6A/+SkyaclI9gvGEuPzbN8pAlTvKnQTLbnuoVn5gAhG3T031E42MXhzsO0ttbaF0aWqwDeyPaPPEZhYYP3qpWRMP3FrypR0abO/s72HFC2gViAvkfqcdLIWncV051NCNzPDxbz0GgAAAAAAAAAAfc7GwtqtVSRjhm7KsvTbDSdZJ78QOmW8PvlQJd5qKBHXfFOyjXW2kI8Jd+C2d9+e/PP0TXma8JMazGPfAPhCBhU7H9dyNCjm+XixTfb5iKGtg08fhdUbzIwWdSbOV9z8pVIICgWvitxArNcMk5Hiram1flanahnIvcJYI0IBvaH+cjh7NcWDrESzIj7uOdylAjteShvE+aDpb1GmGLhdtdEMAKu2dO2FHsfjN8DY8j+q6/7WcwS8jp/ZFpQ5AQHLr/2OZhagKuvBiEGKb7p1E7GdK89iZhCOiuAvqTDfpEifP1ZxLD3y6bRoA59J78oxMMAM7hVC455boxsl5mj3imMwAli1+LRQoyLQJcgBgAAAAAAAAAYNEt9k100JoGUb4S/rWR/DwY15mvESpOPenpTifFlNbyfogvdI9x3e+K/8fuljts9FywZTFVnTF/JuDSlHn2dH/fbdRq380g7GMLczxI75GPNGC7Oxquy9xd928NUDx3hJI1vbyhVJwGXEcOzzS/watsICuuF0CjAXmsTBFO1d0KAkp14LlfybSnZjAZRT+5A8hj+1Q4OOcxb8IE6+6S2J9C5Ni1BHIDH/gc98Og9QZB5N4qeliOvZiptIyUANKmWZQhk815cnQbSLW1rNwERsrnjneZZm+DvJhG9mtf2XiRNeZGu2VcAAAAAAAAAHY7/QtS3xpnMra6q3GjvvsSaVq4d2eVIaTJy/TS0lbjUbD19sUvh/Z/UtTUfRvf6jKfEQV6CJFXDp/7MoXSYF4REzHHOb6+8iCkUJ9BWCn1T1W03yVDcwWSqaN26GI/OdciwfFA4fS+yIAAAAAAAAAAAAAAAAAAAAAAAAAAAAAAAAAAAAAAAAAAAAAAAAAAAAAAAAAAAAAAAAAAAAAAAAAAAAAAAAAAAAAAAAAAAAAAAAAAAAAAEVYSUa6AAAARXhpZgAASUkqAAgAAAAGABIBAwABAAAAAQAAABoBBQABAAAAVgAAABsBBQABAAAAXgAAACgBAwABAAAAAgAAABMCAwABAAAAAQAAAGmHBAABAAAAZgAAAAAAAABJGQEA6AMAAEkZAQDoAwAABgAAkAcABAAAADAyMTABkQcABAAAAAECAwAAoAcABAAAADAxMDABoAMAAQAAAP//AAACoAQAAQAAAGAJAAADoAQAAQAAAEYFAAAAAAAA;movable=0;resizable=0;rotatable=0;deletable=0;editable=0;locked=1;connectable=0;" vertex="1" parent="1">
          <mxGeometry x="90" y="520" width="800" height="450" as="geometry" />
        </mxCell>
        <mxCell id="1_tyyqI9DhQq_7YyejGf-13" value="" style="html=1;shadow=0;dashed=0;align=center;verticalAlign=middle;shape=mxgraph.arrows2.uTurnArrow;dy=0.55;arrowHead=15.56;dx2=16.91;fillColor=#d80073;rotation=75;fontColor=#ffffff;strokeColor=#A50040;" vertex="1" parent="1">
          <mxGeometry x="475" y="770" width="30" height="60" as="geometry" />
        </mxCell>
        <mxCell id="1_tyyqI9DhQq_7YyejGf-4" value="" style="endArrow=classic;html=1;rounded=0;strokeWidth=3;startArrow=oval;startFill=1;fillColor=#e51400;strokeColor=#B20000;" edge="1" parent="1">
          <mxGeometry width="50" height="50" relative="1" as="geometry">
            <mxPoint x="490" y="725" as="sourcePoint" />
            <mxPoint x="390" y="785" as="targetPoint" />
          </mxGeometry>
        </mxCell>
        <mxCell id="1_tyyqI9DhQq_7YyejGf-5" value="" style="endArrow=classic;html=1;rounded=0;strokeWidth=3;startArrow=oval;startFill=1;fillColor=#008a00;strokeColor=#005700;" edge="1" parent="1">
          <mxGeometry width="50" height="50" relative="1" as="geometry">
            <mxPoint x="490" y="725" as="sourcePoint" />
            <mxPoint x="440" y="670" as="targetPoint" />
          </mxGeometry>
        </mxCell>
        <mxCell id="1_tyyqI9DhQq_7YyejGf-6" value="" style="endArrow=classic;html=1;rounded=0;strokeWidth=3;startArrow=oval;startFill=1;fillColor=#0050ef;strokeColor=#001DBC;" edge="1" parent="1">
          <mxGeometry width="50" height="50" relative="1" as="geometry">
            <mxPoint x="490" y="725" as="sourcePoint" />
            <mxPoint x="490" y="815" as="targetPoint" />
          </mxGeometry>
        </mxCell>
        <mxCell id="1_tyyqI9DhQq_7YyejGf-7" value="X" style="text;html=1;align=center;verticalAlign=middle;resizable=0;points=[];autosize=1;strokeColor=none;fillColor=none;fontSize=17;fontStyle=1" vertex="1" parent="1">
          <mxGeometry x="420" y="730" width="30" height="30" as="geometry" />
        </mxCell>
        <mxCell id="1_tyyqI9DhQq_7YyejGf-8" value="Y&lt;div&gt;&lt;br&gt;&lt;/div&gt;" style="text;html=1;align=center;verticalAlign=middle;resizable=0;points=[];autosize=1;strokeColor=none;fillColor=none;fontSize=17;fontStyle=1" vertex="1" parent="1">
          <mxGeometry x="460" y="680" width="30" height="50" as="geometry" />
        </mxCell>
        <mxCell id="1_tyyqI9DhQq_7YyejGf-9" value="Z" style="text;html=1;align=center;verticalAlign=middle;resizable=0;points=[];autosize=1;strokeColor=none;fillColor=none;fontSize=17;fontStyle=1" vertex="1" parent="1">
          <mxGeometry x="490" y="750" width="30" height="30" as="geometry" />
        </mxCell>
        <mxCell id="1_tyyqI9DhQq_7YyejGf-10" value="" style="html=1;shadow=0;dashed=0;align=center;verticalAlign=middle;shape=mxgraph.arrows2.uTurnArrow;dy=0.55;arrowHead=15.56;dx2=16.91;fillColor=#1ba1e2;fontColor=#ffffff;strokeColor=#006EAF;rotation=30;" vertex="1" parent="1">
          <mxGeometry x="430" y="650" width="30" height="60" as="geometry" />
        </mxCell>
        <mxCell id="1_tyyqI9DhQq_7YyejGf-11" value="" style="html=1;shadow=0;dashed=0;align=center;verticalAlign=middle;shape=mxgraph.arrows2.uTurnArrow;dy=0.55;arrowHead=15.56;dx2=16.91;fillColor=#f0a30a;rotation=90;fontColor=#000000;strokeColor=#BD7000;" vertex="1" parent="1">
          <mxGeometry x="390" y="743" width="30" height="60" as="geometry" />
        </mxCell>
      </root>
    </mxGraphModel>
  </diagram>
</mxfile>
